<svg width="1437" height="746" viewBox="0 0 1437 746" fill="none" xmlns="http://www.w3.org/2000/svg">
<g clip-path="url(#clip0)">
<rect width="1437" height="746" fill="white"/>
<rect x="2" width="1444" height="746" fill="url(#paint0_linear)"/>
<path d="M-17.6847 -11.3015L1431.78 255.812L1431.34 746.239L457.167 747.11L-18.3605 747.535L-17.6847 -11.3015Z" fill="#188BF0"/>
<rect x="19" y="142" width="1086" height="519" rx="18" fill="#2096FD"/>
<path d="M1132 401C1132 391.059 1140.06 383 1150 383H1437V568H1150C1140.06 568 1132 559.941 1132 550V401Z" fill="#2396FC"/>
<path d="M421.164 385L512.392 385.032L512.382 403.871C488.517 403.871 464.642 403.795 440.766 403.903C438.942 404.537 439.803 406.933 439.598 408.405L439.67 459.074C440.274 460.976 442.57 460.063 443.984 460.299L505.22 460.267V479.084C486.181 479.073 467.152 479.073 448.113 479.084C445.285 479.073 442.426 478.891 439.629 479.396L439.414 550.923C433.276 550.665 427.148 550.902 421.01 550.762L421 388.041L421.164 385ZM534.515 385.032H553.247L553.257 497.611L553.052 550.622C546.955 550.504 540.858 550.472 534.772 550.644C534.3 548.022 534.495 545.357 534.495 542.713L534.515 385.032ZM717.854 398.992L736.646 399.002L736.677 432.316C745.869 432.552 755.111 431.886 764.282 432.649C764.026 438.624 764.241 444.599 764.139 450.574C754.999 450.596 745.869 450.671 736.739 450.531L736.667 516.879C736.862 523.026 738.112 530.451 743.809 533.622C750.316 537.501 758.308 535.674 764.467 531.934V551.235C757.683 554.459 749.947 554.846 742.661 553.803C732.394 552.159 722.557 544.819 719.452 534.148C717.392 528.302 717.864 521.994 717.823 515.89L717.782 451.273L717.321 450.724C710.834 450.359 704.328 450.778 697.831 450.542C697.872 444.459 697.606 438.377 697.975 432.305C704.574 432.187 711.203 432.617 717.792 432.09L717.854 398.992ZM797.247 398.927C803.497 399.153 809.748 398.852 815.988 399.078L816.419 399.572C816.654 410.512 816.101 421.484 816.665 432.402C825.569 432.23 834.474 432.37 843.368 432.316L843.43 450.434C834.474 450.789 825.487 450.574 816.532 450.52L816.429 518.018C816.419 523.896 818.038 530.849 823.458 533.74C830.109 537.544 838.173 535.588 844.352 531.698L844.331 551.106C837.743 554.222 830.314 554.824 823.202 553.964C813.97 552.675 804.932 547.205 800.598 538.339C798.507 533.697 797.339 528.56 797.144 523.434V450.596C790.658 450.585 784.182 450.617 777.706 450.596L777.747 432.252C784.131 432.434 790.515 432.198 796.898 432.424C797.575 421.29 796.847 410.082 797.247 398.927ZM888.465 432.939C901.438 427.298 916.408 427.19 929.658 431.918C944.833 437.41 956.576 451.294 960.88 467.403C963.698 476.333 963.585 485.822 963.186 495.107L873.986 495.204C874.724 505.165 877.562 515.321 884.161 522.8C893.537 534.266 909.676 538.522 923.305 534.019C932.865 531.064 940.325 523.348 945.233 514.482C950.664 517.029 955.941 519.931 961.351 522.542C953.953 537.329 940.499 549.075 924.688 552.256C911.705 554.803 897.503 554.867 885.596 548.14C870.143 540.091 859.507 523.703 856.474 506.079C854.271 492.538 854.957 478.214 859.815 465.361C864.907 451.251 875.205 439.032 888.465 432.939ZM895.525 449.929C884.612 455.216 877.583 466.962 875.39 479.084L943.798 478.858C942.712 470.938 940.027 462.889 934.494 457.162C924.801 446.265 908.231 444.137 895.525 449.929ZM1003.79 451.487C1010.94 433.294 1032.87 423.74 1050.22 431.36V452.594C1042.94 449.585 1034.77 447.726 1027.08 450.101C1016.56 453.379 1008.78 463.212 1005.8 474.033C1003.75 481.341 1004.52 488.971 1004.6 496.461C1003.8 506.154 1005 515.858 1004.4 525.551C1004.89 533.922 1003.97 542.294 1004.64 550.676C998.271 550.998 991.898 550.655 985.534 550.88C985.165 525.616 985.483 500.34 985.38 475.065L985.524 432.52C991.498 432.692 997.482 432.499 1003.47 432.649C1004.01 438.925 1002.8 445.233 1003.79 451.487ZM580.114 432.284C586.467 432.563 592.872 431.886 599.194 432.638L599.102 503.07C599.04 511.678 600.209 521.081 605.885 527.765C613.212 536.276 625.621 537.834 635.642 534.471C649.035 529.441 658.38 514.568 657.837 499.695L658.042 432.284L677.173 432.327L677.061 550.59C670.994 550.483 664.938 550.59 658.882 550.515L658.811 533.686C654.886 538.855 650.767 544.089 645.141 547.345C633.624 554.964 619.012 555.974 606.111 552.073C597.79 549.44 590.546 543.326 586.375 535.33C581.426 526.54 580.176 516.148 579.889 506.132L580.114 432.284Z" fill="white"/>
<path d="M236.847 212.129L348.382 212L161.256 408.955L112.488 460.024L57 401.52L236.847 212.129ZM235.809 387.987C237.256 385.974 239.92 386.966 241.941 386.707L348.286 386.736L251.364 488.701L195.589 430.326L235.809 387.987Z" fill="#44D1FD"/>
<path d="M139.993 488.802L195.59 430.326L251.364 488.701L251.596 488.96L195.603 547.378L139.993 488.802V488.802Z" fill="#1FBCFD"/>
<path d="M195.603 547.378L251.596 488.96L348.327 590.925C311.891 591.012 275.468 590.896 239.046 590.983C236.97 591.472 235.686 589.473 234.361 588.236L195.603 547.378V547.378Z" fill="#08589C"/>
<path d="M467.791 267.836V305.369C467.791 311.335 465.875 316.067 462.043 319.564C458.237 323.036 453.158 324.771 446.806 324.771C440.377 324.771 435.272 323.061 431.492 319.641C427.712 316.195 425.822 311.425 425.822 305.33V267.836H435.542V305.407C435.542 309.162 436.494 312.029 438.397 314.009C440.3 315.989 443.103 316.979 446.806 316.979C454.315 316.979 458.07 313.019 458.07 305.099V267.836H467.791ZM487.309 324H477.936V264.75H487.309V324ZM509.296 272.118V282.263H516.664V289.206H509.296V312.505C509.296 314.099 509.605 315.257 510.222 315.977C510.865 316.671 511.997 317.018 513.617 317.018C514.697 317.018 515.79 316.889 516.896 316.632V323.884C514.761 324.476 512.704 324.771 510.724 324.771C503.523 324.771 499.923 320.798 499.923 312.852V289.206H493.057V282.263H499.923V272.118H509.296ZM533.83 324H524.456V282.263H533.83V324ZM523.877 271.423C523.877 269.983 524.327 268.787 525.228 267.836C526.153 266.884 527.465 266.409 529.162 266.409C530.859 266.409 532.171 266.884 533.097 267.836C534.022 268.787 534.485 269.983 534.485 271.423C534.485 272.838 534.022 274.021 533.097 274.972C532.171 275.898 530.859 276.361 529.162 276.361C527.465 276.361 526.153 275.898 525.228 274.972C524.327 274.021 523.877 272.838 523.877 271.423ZM552.885 282.263L553.155 286.622C556.087 283.201 560.099 281.491 565.19 281.491C570.771 281.491 574.59 283.626 576.647 287.895C579.681 283.626 583.95 281.491 589.454 281.491C594.057 281.491 597.477 282.764 599.714 285.31C601.977 287.856 603.135 291.611 603.186 296.574V324H593.812V296.844C593.812 294.195 593.234 292.253 592.077 291.019C590.919 289.785 589.004 289.167 586.329 289.167C584.195 289.167 582.446 289.746 581.083 290.903C579.746 292.035 578.807 293.526 578.267 295.378L578.306 324H568.932V296.535C568.804 291.623 566.296 289.167 561.41 289.167C557.656 289.167 554.994 290.698 553.425 293.758V324H544.052V282.263H552.885ZM637.749 324C637.337 323.203 636.977 321.904 636.668 320.104C633.685 323.216 630.034 324.771 625.713 324.771C621.522 324.771 618.101 323.576 615.453 321.184C612.804 318.792 611.479 315.835 611.479 312.312C611.479 307.863 613.125 304.456 616.417 302.09C619.734 299.698 624.466 298.502 630.612 298.502H636.36V295.764C636.36 293.604 635.756 291.881 634.547 290.595C633.338 289.283 631.5 288.627 629.031 288.627C626.896 288.627 625.148 289.167 623.785 290.248C622.422 291.302 621.74 292.652 621.74 294.298H612.367C612.367 292.009 613.125 289.875 614.643 287.895C616.16 285.889 618.217 284.32 620.814 283.188C623.438 282.057 626.356 281.491 629.571 281.491C634.457 281.491 638.353 282.726 641.259 285.194C644.165 287.637 645.656 291.083 645.733 295.532V314.356C645.733 318.111 646.261 321.107 647.315 323.344V324H637.749ZM627.449 317.25C629.301 317.25 631.037 316.799 632.657 315.899C634.303 314.999 635.537 313.791 636.36 312.273V304.404H631.307C627.835 304.404 625.225 305.009 623.476 306.217C621.727 307.426 620.853 309.136 620.853 311.348C620.853 313.148 621.444 314.588 622.627 315.668C623.836 316.722 625.443 317.25 627.449 317.25ZM667.296 272.118V282.263H674.664V289.206H667.296V312.505C667.296 314.099 667.605 315.257 668.222 315.977C668.865 316.671 669.997 317.018 671.617 317.018C672.697 317.018 673.79 316.889 674.896 316.632V323.884C672.761 324.476 670.704 324.771 668.724 324.771C661.523 324.771 657.923 320.798 657.923 312.852V289.206H651.057V282.263H657.923V272.118H667.296ZM700.239 324.771C694.298 324.771 689.477 322.907 685.773 319.178C682.096 315.424 680.257 310.435 680.257 304.211V303.054C680.257 298.888 681.055 295.172 682.649 291.906C684.269 288.615 686.532 286.056 689.438 284.23C692.344 282.404 695.584 281.491 699.159 281.491C704.842 281.491 709.227 283.304 712.312 286.93C715.424 290.556 716.98 295.687 716.98 302.321V306.102H689.708C689.991 309.548 691.135 312.273 693.141 314.279C695.173 316.285 697.719 317.288 700.779 317.288C705.073 317.288 708.571 315.552 711.271 312.081L716.324 316.902C714.653 319.397 712.415 321.338 709.612 322.727C706.835 324.09 703.71 324.771 700.239 324.771ZM699.12 289.013C696.549 289.013 694.465 289.913 692.871 291.713C691.302 293.514 690.299 296.021 689.862 299.235H707.722V298.541C707.516 295.404 706.681 293.038 705.215 291.443C703.749 289.823 701.717 289.013 699.12 289.013ZM787.918 316.709C785.886 319.358 783.07 321.364 779.47 322.727C775.87 324.09 771.781 324.771 767.204 324.771C762.498 324.771 758.332 323.704 754.706 321.57C751.08 319.435 748.277 316.388 746.296 312.428C744.342 308.442 743.326 303.8 743.249 298.502V294.105C743.249 285.619 745.281 278.997 749.344 274.239C753.407 269.456 759.077 267.064 766.355 267.064C772.604 267.064 777.567 268.607 781.245 271.693C784.922 274.779 787.134 279.228 787.879 285.04H778.313C777.233 278.277 773.311 274.895 766.548 274.895C762.176 274.895 758.846 276.477 756.557 279.64C754.294 282.777 753.124 287.393 753.047 293.488V297.808C753.047 303.877 754.32 308.596 756.866 311.965C759.437 315.308 762.999 316.979 767.551 316.979C772.54 316.979 776.089 315.848 778.197 313.585V302.591H766.625V295.185H787.918V316.709ZM823.021 319.911C820.269 323.151 816.36 324.771 811.294 324.771C806.768 324.771 803.335 323.447 800.995 320.798C798.68 318.15 797.523 314.318 797.523 309.303V282.263H806.896V309.188C806.896 314.485 809.095 317.134 813.493 317.134C818.044 317.134 821.118 315.501 822.712 312.235V282.263H832.085V324H823.252L823.021 319.911ZM851.604 324H842.23V282.263H851.604V324ZM841.652 271.423C841.652 269.983 842.102 268.787 843.002 267.836C843.928 266.884 845.239 266.409 846.937 266.409C848.634 266.409 849.945 266.884 850.871 267.836C851.797 268.787 852.26 269.983 852.26 271.423C852.26 272.838 851.797 274.021 850.871 274.972C849.945 275.898 848.634 276.361 846.937 276.361C845.239 276.361 843.928 275.898 843.002 274.972C842.102 274.021 841.652 272.838 841.652 271.423ZM860.09 302.823C860.09 296.394 861.582 291.238 864.565 287.354C867.548 283.446 871.547 281.491 876.562 281.491C880.985 281.491 884.559 283.034 887.285 286.12V264.75H896.659V324H888.172L887.709 319.68C884.906 323.074 881.165 324.771 876.484 324.771C871.598 324.771 867.638 322.804 864.604 318.87C861.595 314.935 860.09 309.586 860.09 302.823ZM869.464 303.633C869.464 307.876 870.274 311.193 871.894 313.585C873.54 315.951 875.867 317.134 878.876 317.134C882.708 317.134 885.511 315.424 887.285 312.003V294.182C885.562 290.839 882.785 289.167 878.953 289.167C875.919 289.167 873.578 290.376 871.933 292.793C870.287 295.185 869.464 298.798 869.464 303.633ZM924.818 324.771C918.877 324.771 914.056 322.907 910.353 319.178C906.675 315.424 904.836 310.435 904.836 304.211V303.054C904.836 298.888 905.634 295.172 907.228 291.906C908.848 288.615 911.111 286.056 914.017 284.23C916.923 282.404 920.163 281.491 923.738 281.491C929.421 281.491 933.806 283.304 936.892 286.93C940.003 290.556 941.559 295.687 941.559 302.321V306.102H914.287C914.57 309.548 915.714 312.273 917.72 314.279C919.752 316.285 922.298 317.288 925.358 317.288C929.653 317.288 933.15 315.552 935.85 312.081L940.903 316.902C939.232 319.397 936.994 321.338 934.191 322.727C931.414 324.09 928.29 324.771 924.818 324.771ZM923.699 289.013C921.128 289.013 919.045 289.913 917.45 291.713C915.882 293.514 914.879 296.021 914.441 299.235H932.301V298.541C932.096 295.404 931.26 293.038 929.794 291.443C928.328 289.823 926.297 289.013 923.699 289.013ZM980.288 272.118V282.263H987.655V289.206H980.288V312.505C980.288 314.099 980.596 315.257 981.213 315.977C981.856 316.671 982.988 317.018 984.608 317.018C985.688 317.018 986.781 316.889 987.887 316.632V323.884C985.752 324.476 983.695 324.771 981.715 324.771C974.514 324.771 970.914 320.798 970.914 312.852V289.206H964.048V282.263H970.914V272.118H980.288ZM991.937 302.746C991.937 298.657 992.747 294.979 994.367 291.713C995.987 288.422 998.263 285.902 1001.19 284.153C1004.13 282.378 1007.5 281.491 1011.3 281.491C1016.93 281.491 1021.5 283.304 1025 286.93C1028.52 290.556 1030.42 295.365 1030.7 301.357L1030.74 303.556C1030.74 307.67 1029.95 311.348 1028.35 314.588C1026.78 317.828 1024.52 320.335 1021.56 322.11C1018.63 323.884 1015.24 324.771 1011.38 324.771C1005.49 324.771 1000.77 322.817 997.222 318.908C993.699 314.974 991.937 309.74 991.937 303.208V302.746ZM1001.31 303.556C1001.31 307.85 1002.2 311.219 1003.97 313.662C1005.75 316.079 1008.22 317.288 1011.38 317.288C1014.54 317.288 1017 316.054 1018.75 313.585C1020.52 311.116 1021.41 307.503 1021.41 302.746C1021.41 298.528 1020.49 295.185 1018.67 292.716C1016.87 290.248 1014.41 289.013 1011.3 289.013C1008.24 289.013 1005.81 290.235 1004.01 292.678C1002.21 295.095 1001.31 298.721 1001.31 303.556Z" fill="white"/>
<path d="M858.841 26.8143H874.543C879.872 26.8143 884.522 27.9165 888.5 30.1268C892.473 32.337 895.528 35.4097 897.659 39.339C899.791 43.274 900.857 47.7859 900.857 52.886C900.857 57.9861 899.791 62.498 897.659 66.433C895.528 70.368 892.473 73.435 888.5 75.6452C884.528 77.8555 879.877 78.9577 874.543 78.9577H858.841V26.8143V26.8143ZM874.543 73.0695C880.698 73.0695 885.577 71.299 889.19 67.7523C892.798 64.2056 894.604 59.254 894.604 52.8917C894.604 46.5294 892.798 41.5778 889.19 38.0311C885.582 34.4844 880.698 32.714 874.543 32.714H864.951V73.0637H874.543V73.0695Z" fill="white"/>
<path d="M910.369 78.5294C908.237 77.4614 906.59 75.9936 905.427 74.1203C904.265 72.2528 903.683 70.1282 903.683 67.7466C903.683 63.8116 905.16 60.7446 908.118 58.5344C911.07 56.3242 914.803 55.2219 919.311 55.2219C921.539 55.2219 923.608 55.4675 925.523 55.9529C927.438 56.4384 928.903 56.9981 929.923 57.6263V55.3704C929.923 52.6004 928.954 50.3788 927.016 48.7054C925.079 47.032 922.628 46.1925 919.676 46.1925C917.59 46.1925 915.681 46.6436 913.931 47.5403C912.187 48.437 910.808 49.6877 909.787 51.2926L905.137 47.7973C906.59 45.5642 908.591 43.8166 911.132 42.5544C913.674 41.2922 916.501 40.6583 919.602 40.6583C924.64 40.6583 928.601 41.9833 931.485 44.6276C934.369 47.2776 935.811 50.8814 935.811 55.4446V78.9692H929.923V73.652H929.632C928.567 75.451 926.965 76.9759 924.834 78.2381C922.702 79.5003 920.303 80.1342 917.635 80.1342C914.928 80.1342 912.506 79.5974 910.369 78.5294ZM924.036 73.0695C925.825 72.0015 927.256 70.5679 928.322 68.7746C929.387 66.9813 929.923 65.0109 929.923 62.8749C928.76 62.0982 927.33 61.4643 925.637 60.9788C923.939 60.4934 922.149 60.2478 920.257 60.2478C916.866 60.2478 914.307 60.9503 912.592 62.3609C910.87 63.7716 910.01 65.5935 910.01 67.8208C910.01 69.8598 910.785 71.5103 912.335 72.7725C913.885 74.0347 915.846 74.6686 918.222 74.6686C920.303 74.6686 922.246 74.1375 924.036 73.0695Z" fill="white"/>
<path d="M942.331 42.4059H948.218V48.3056H948.509C949.381 46.1182 950.857 44.422 952.943 43.2055C955.023 41.9947 957.303 41.3836 959.776 41.3836C960.842 41.3836 961.737 41.4579 962.466 41.6006V47.9401C961.64 47.7459 960.529 47.6488 959.121 47.6488C955.969 47.6488 953.416 48.694 951.455 50.7786C949.495 52.8689 948.509 55.5874 948.509 58.9342V79.546H942.331V42.4059ZM980.699 79.3918C979.416 78.9006 978.339 78.2324 977.461 77.3871C976.492 76.4505 975.763 75.3597 975.278 74.126C974.794 72.8924 974.549 71.3847 974.549 69.6028V47.4318H968.08V41.8234H974.549V31.3376H980.727V41.8234H989.738V47.4318H980.727V68.1293C980.727 70.2139 981.115 71.7502 981.89 72.7439C982.807 73.8348 984.141 74.383 985.885 74.383C987.287 74.383 988.649 73.9718 989.954 73.1437V79.1919C989.225 79.5289 988.489 79.7744 987.737 79.9229C986.985 80.0714 986.027 80.14 984.865 80.14C983.377 80.1342 981.987 79.8829 980.699 79.3918Z" fill="white"/>
<path d="M775.437 75.4377L762.169 62.142C760.596 60.52 759.616 58.2355 759.616 56.0024C759.616 54.9687 760.197 53.3524 760.636 52.4215L772.884 26.8524L775.437 75.4377Z" fill="#01579B"/>
<path d="M820.861 29.411L807.593 16.1152C806.436 14.9502 804.019 13.5566 801.979 13.5566C800.224 13.5566 798.502 13.9107 797.385 14.5789L772.89 26.8523L820.861 29.411Z" fill="#40C4FF"/>
<path d="M791.259 91.2921H823.414V77.4823L799.426 69.8121L777.483 77.4823L791.259 91.2921Z" fill="#40C4FF"/>
<path d="M772.89 68.2815C772.89 72.3822 773.403 73.3931 775.443 75.4434L777.483 77.488H823.414L800.959 51.9189L772.89 26.858V68.2815Z" fill="#29B6F6"/>
<path d="M813.714 26.8524H772.884L823.409 77.4823H837.19V45.7736L820.861 29.411C818.57 27.1036 816.529 26.8524 813.714 26.8524Z" fill="#01579B"/>
<path opacity="0.2" d="M775.95 75.9517C773.91 73.8957 773.397 71.8739 773.397 68.2816V27.3664L772.884 26.8524V68.2758C772.89 71.8739 772.89 72.8677 775.95 75.9517L777.483 77.488L775.95 75.9517Z" fill="white"/>
<path opacity="0.2" d="M836.682 45.2653V76.974H822.901L823.414 77.4823H837.195V45.7793L836.682 45.2653Z" fill="#263238"/>
<path opacity="0.2" d="M820.861 29.411C818.33 26.8752 816.256 26.8524 813.207 26.8524H772.89L773.403 27.3664H813.212C814.728 27.3664 818.575 27.1094 820.861 29.411Z" fill="white"/>
<path opacity="0.2" d="M836.684 45.2653L820.863 29.411L807.594 16.1153C806.438 14.9502 804.021 13.5566 801.981 13.5566C800.225 13.5566 798.504 13.9107 797.387 14.5789L772.891 26.8523L760.643 52.4215C760.205 53.3524 759.623 54.9687 759.623 56.0024C759.623 58.2355 760.604 60.52 762.177 62.142L774.407 74.3069C774.698 74.6667 775.04 75.0322 775.45 75.4377L775.963 75.9517L777.496 77.488L790.764 90.7838L791.277 91.2978H822.92H823.433V77.488H837.214V77.4538V45.7793L836.684 45.2653Z" fill="url(#paint1_radial)"/>
<path d="M1151.72 79.2759H1145.6V31.6422H1173.42V37.4945H1151.72V53.1333H1171.29V58.8504H1151.72L1151.72 79.2759ZM1184.93 38.4975C1183.47 39.9634 1181.18 40.1936 1179.46 39.0475C1177.73 37.9014 1177.06 35.6982 1177.85 33.7861C1178.64 31.8739 1180.67 30.7855 1182.7 31.187C1184.73 31.5884 1186.2 33.3679 1186.2 35.4363C1186.22 36.5883 1185.76 37.6969 1184.93 38.4975H1184.93ZM1184.93 79.2759H1178.81V46.6782H1184.93V79.2759ZM1198.37 79.2759H1192.25V46.6782H1198.1V52.0004H1198.37C1199.08 50.1249 1200.43 48.5661 1202.2 47.6086C1203.88 46.5292 1205.82 45.9307 1207.82 45.8779C1209.39 45.8333 1210.95 46.1055 1212.41 46.6782L1210.08 52.3953C1209.03 52.0458 1207.93 51.8874 1206.82 51.9275C1204.58 51.9389 1202.44 52.8932 1200.93 54.5574C1199.22 56.3106 1198.37 58.6061 1198.37 61.4438L1198.37 79.2759ZM1229.2 80.3154C1224.27 80.3154 1220.27 78.6747 1217.19 75.394C1214.1 72.1132 1212.56 67.9739 1212.56 62.9775C1212.47 58.4789 1214.07 54.1105 1217.05 50.7377C1219.9 47.3806 1224.13 45.4965 1228.53 45.6125C1233.37 45.6125 1237.24 47.1873 1240.15 50.3369C1243.06 53.4864 1244.51 57.6998 1244.5 62.9768L1244.44 64.1099H1218.67C1218.85 67.3911 1219.95 69.9898 1221.97 71.9059C1223.86 73.7601 1226.41 74.7884 1229.06 74.7645C1233.45 74.7645 1236.42 72.9014 1237.97 69.1773L1243.43 71.4381C1242.33 74.0155 1240.5 76.2203 1238.18 77.7893C1235.73 79.4732 1232.74 80.3154 1229.2 80.3154ZM1237.99 59.0063C1237.85 57.1422 1237 55.3681 1235.42 53.6841C1233.84 52.0001 1231.5 51.1756 1228.39 51.2102C1226.23 51.1724 1224.13 51.931 1222.5 53.3412C1220.78 54.8413 1219.58 56.841 1219.07 59.0582L1237.99 59.0063ZM1266.64 80.3154C1264.32 80.3613 1262.03 79.8252 1259.97 78.7562C1258.16 77.8457 1256.64 76.4672 1255.54 74.7646H1255.28V79.276H1249.42V31.6422H1255.54V46.6782L1255.28 51.1999H1255.54C1256.64 49.4973 1258.16 48.1188 1259.97 47.2084C1262.02 46.127 1264.31 45.5783 1266.64 45.6128C1270.85 45.6128 1274.49 47.276 1277.55 50.6023C1280.62 53.9286 1282.15 58.0535 1282.15 62.9771C1282.14 67.9007 1280.62 72.0257 1277.55 75.352C1274.49 78.6783 1270.85 80.3327 1266.64 80.3154ZM1265.64 74.7282C1268.43 74.7503 1271.09 73.5751 1272.96 71.5006C1275 69.3489 1276.02 66.4991 1276.02 62.951C1276.02 59.4029 1275 56.5532 1272.96 54.4013C1271.07 52.3516 1268.41 51.1827 1265.63 51.1767C1262.84 51.1708 1260.18 52.3285 1258.28 54.37C1256.27 56.4975 1255.26 59.3577 1255.26 62.9508C1255.26 66.5439 1256.28 69.4128 1258.32 71.5577C1260.19 73.6244 1262.87 74.7881 1265.66 74.754L1265.64 74.7282ZM1297.74 80.3154C1294.27 80.3154 1291.38 79.3174 1289.06 77.3217C1286.73 75.326 1285.57 72.6875 1285.56 69.4062C1285.56 65.8581 1286.94 63.0758 1289.69 61.0592C1292.44 59.0425 1295.84 58.0344 1299.87 58.0344C1303.47 58.0344 1306.41 58.6996 1308.71 60.0301V59.0998C1308.8 56.9088 1307.89 54.795 1306.25 53.3464C1304.57 51.9027 1302.41 51.1405 1300.2 51.2103C1298.51 51.1892 1296.84 51.6249 1295.37 52.4732C1294 53.2331 1292.95 54.462 1292.41 55.9347L1286.82 53.5387C1287.58 51.581 1289.06 49.7653 1291.29 48.0919C1293.51 46.4184 1296.44 45.5867 1300.08 45.5971C1304.24 45.5971 1307.7 46.8099 1310.48 49.2352C1313.25 51.6606 1314.62 55.0978 1314.6 59.5468V79.276H1308.73V74.7542H1308.46C1306.02 78.4617 1302.45 80.3084 1297.75 80.3084L1297.74 80.3154ZM1298.74 74.7282C1301.31 74.7192 1303.78 73.7153 1305.63 71.9268C1307.6 70.2652 1308.75 67.8209 1308.75 65.2429C1307.02 63.8223 1304.42 63.112 1300.95 63.112C1297.98 63.112 1295.74 63.7547 1294.23 65.0402C1292.82 66.1215 1291.99 67.7879 1291.97 69.5619C1291.94 71.1057 1292.73 72.5499 1294.05 73.3559C1295.43 74.2868 1297.07 74.7744 1298.74 74.754L1298.74 74.7282ZM1332.61 80.3154C1328.97 80.3154 1325.97 79.4283 1323.6 77.6543C1321.29 75.9513 1319.49 73.6511 1318.4 71.0017L1323.86 68.7409C1325.59 72.8225 1328.54 74.8634 1332.7 74.8634C1334.35 74.931 1335.98 74.4902 1337.38 73.6004C1338.53 72.8871 1339.22 71.6262 1339.21 70.2741C1339.21 68.1466 1337.72 66.7052 1334.74 65.9499L1328.15 64.3543C1325.98 63.781 1323.96 62.7495 1322.23 61.3294C1320.38 59.8899 1319.34 57.6501 1319.43 55.3109C1319.43 52.4284 1320.71 50.0893 1323.26 48.2944C1325.93 46.4633 1329.11 45.5211 1332.34 45.6022C1335.04 45.559 1337.71 46.2392 1340.06 47.572C1342.28 48.8312 1343.99 50.8176 1344.91 53.1956L1339.6 55.368C1338.4 52.4855 1335.91 51.0438 1332.14 51.0438C1330.53 50.9904 1328.94 51.3827 1327.55 52.1768C1326.4 52.7693 1325.69 53.9501 1325.69 55.2381C1325.69 57.1022 1327.13 58.3669 1330.01 59.0321L1336.46 60.5654C1339.53 61.2584 1341.79 62.4711 1343.26 64.2035C1344.68 65.8219 1345.46 67.903 1345.45 70.0557C1345.48 72.9259 1344.15 75.6401 1341.86 77.3736C1339.46 79.3347 1336.38 80.3153 1332.61 80.3153L1332.61 80.3154ZM1365.56 80.3154C1360.63 80.3154 1356.63 78.6747 1353.55 75.394C1350.47 72.1132 1348.92 67.9647 1348.92 62.951C1348.83 58.4525 1350.43 54.0841 1353.41 50.7113C1356.28 47.3626 1360.5 45.4885 1364.91 45.6127C1369.76 45.6127 1373.63 47.1876 1376.52 50.3371C1379.42 53.4867 1380.87 57.7 1380.88 62.9771L1380.81 64.1101H1355.03C1355.21 67.3913 1356.3 69.9901 1358.33 71.9061C1360.22 73.7603 1362.78 74.7851 1365.43 74.7542C1369.82 74.7542 1372.79 72.8911 1374.35 69.167L1379.8 71.4278C1378.7 74.0053 1376.87 76.2101 1374.55 77.7789C1372.1 79.4698 1369.11 80.3154 1365.56 80.3154ZM1374.35 59.0063C1374.21 57.1422 1373.36 55.3681 1371.78 53.6841C1370.21 52.0001 1367.86 51.1756 1364.76 51.2102C1362.6 51.1729 1360.5 51.9315 1358.87 53.3412C1357.15 54.8413 1355.96 56.841 1355.44 59.0582L1374.35 59.0063Z" fill="white"/>
<path d="M1054.02 82.9325L1065.28 10.3573C1065.42 9.46721 1066.11 8.76556 1066.99 8.61469C1067.87 8.46381 1068.75 8.89788 1069.17 9.69226L1080.82 31.5695L1085.46 22.6677C1085.82 21.9795 1086.53 21.5485 1087.3 21.5485C1088.08 21.5485 1088.79 21.9795 1089.15 22.6677L1120.58 82.9324H1054.02V82.9325Z" fill="#FFA000"/>
<path d="M1092.93 54.6617L1080.82 31.5591L1054.02 82.9326L1092.93 54.6617Z" fill="#F57C00"/>
<path d="M1120.58 82.9325L1111.95 29.1766C1111.82 28.4046 1111.28 27.7705 1110.53 27.5314C1109.79 27.2924 1108.98 27.4914 1108.43 28.0448L1054.02 82.9318L1084.13 99.9341C1086.02 100.997 1088.32 100.997 1090.21 99.9341L1120.58 82.9318V82.9325Z" fill="#FFCA28"/>
<path d="M1111.95 29.1765C1111.82 28.4046 1111.28 27.7704 1110.53 27.5314C1109.79 27.2924 1108.98 27.4913 1108.43 28.0448L1097.63 38.9475L1089.14 22.6674C1088.78 21.9791 1088.07 21.5481 1087.3 21.5481C1086.53 21.5481 1085.82 21.9791 1085.46 22.6674L1080.82 31.5691L1069.17 9.69224C1068.75 8.89764 1067.87 8.46428 1066.98 8.61628C1066.1 8.76828 1065.41 9.47169 1065.28 10.3625L1054.02 82.9325H1053.98L1054.02 82.9744L1054.32 83.121L1108.42 28.5796C1108.97 28.0231 1109.78 27.8231 1110.52 28.0614C1111.27 28.2998 1111.81 28.9364 1111.94 29.7106L1120.5 82.9847L1120.58 82.9324L1111.95 29.1764L1111.95 29.1765ZM1054.12 82.833L1065.28 10.8757C1065.42 9.98492 1066.11 9.28151 1066.99 9.12951C1067.87 8.97751 1068.75 9.41073 1069.17 10.2055L1080.82 32.0827L1085.46 23.1809C1085.82 22.4927 1086.53 22.0617 1087.3 22.0617C1088.08 22.0617 1088.79 22.4927 1089.15 23.1809L1097.47 39.115L1054.12 82.833H1054.12Z" fill="white" fill-opacity="0.2"/>
<path opacity="0.2" d="M1090.21 99.4217C1088.32 100.485 1086.02 100.485 1084.13 99.4217L1054.09 82.4666L1054.02 82.9327L1084.13 99.9298C1086.02 100.993 1088.32 100.993 1090.21 99.9298L1120.58 82.9327L1120.5 82.451L1090.21 99.4219V99.4217Z" fill="#A52714"/>
<path d="M1111.87 29.1877C1111.74 28.4159 1111.19 27.7815 1110.45 27.5439C1109.71 27.3063 1108.91 27.5038 1108.36 28.0571L1097.6 38.9544L1089.13 22.6818C1088.78 21.9938 1088.07 21.5629 1087.3 21.5629C1086.53 21.5629 1085.82 21.9938 1085.47 22.6818L1080.84 31.5797L1069.23 9.71185C1068.81 8.9176 1067.93 8.48431 1067.05 8.63638C1066.18 8.78845 1065.49 9.4913 1065.36 10.3819L1054.14 82.9201L1084.14 99.9097C1086.02 100.972 1088.32 100.972 1090.2 99.9097L1120.46 82.9201L1111.87 29.1875V29.1877Z" fill="url(#paint2_linear)"/>
<path opacity="0.7" d="M637.734 71.0234L642.609 51.6406H646.945L639.562 77H636.047L629.883 57.7812L623.883 77H620.367L613.008 51.6406H617.32L622.312 70.625L628.219 51.6406H631.711L637.734 71.0234ZM656.086 77H651.75V51.6406H656.086V77ZM651.398 44.9141C651.398 44.2109 651.609 43.6172 652.031 43.1328C652.469 42.6484 653.109 42.4062 653.953 42.4062C654.797 42.4062 655.438 42.6484 655.875 43.1328C656.312 43.6172 656.531 44.2109 656.531 44.9141C656.531 45.6172 656.312 46.2031 655.875 46.6719C655.438 47.1406 654.797 47.375 653.953 47.375C653.109 47.375 652.469 47.1406 652.031 46.6719C651.609 46.2031 651.398 45.6172 651.398 44.9141ZM668.93 45.5V51.6406H673.664V54.9922H668.93V70.7188C668.93 71.7344 669.141 72.5 669.562 73.0156C669.984 73.5156 670.703 73.7656 671.719 73.7656C672.219 73.7656 672.906 73.6719 673.781 73.4844V77C672.641 77.3125 671.531 77.4688 670.453 77.4688C668.516 77.4688 667.055 76.8828 666.07 75.7109C665.086 74.5391 664.594 72.875 664.594 70.7188V54.9922H659.977V51.6406H664.594V45.5H668.93ZM683.086 54.7109C685.008 52.3516 687.508 51.1719 690.586 51.1719C695.945 51.1719 698.648 54.1953 698.695 60.2422V77H694.359V60.2188C694.344 58.3906 693.922 57.0391 693.094 56.1641C692.281 55.2891 691.008 54.8516 689.273 54.8516C687.867 54.8516 686.633 55.2266 685.57 55.9766C684.508 56.7266 683.68 57.7109 683.086 58.9297V77H678.75V41H683.086V54.7109Z" fill="white"/>
<path d="M1266.62 435.799H1257.99V442.854H1268.02V445H1255.37V425.094H1267.88V427.254H1257.99V433.652H1266.62V435.799ZM1275.85 435.607L1279.13 430.207H1282.08L1277.24 437.521L1282.24 445H1279.31L1275.89 439.463L1272.47 445H1269.53L1274.52 437.521L1269.68 430.207H1272.61L1275.85 435.607ZM1297.27 437.768C1297.27 440.019 1296.76 441.833 1295.73 443.209C1294.7 444.585 1293.3 445.273 1291.55 445.273C1289.75 445.273 1288.34 444.704 1287.31 443.564V450.688H1284.78V430.207H1287.09L1287.21 431.848C1288.24 430.572 1289.67 429.934 1291.5 429.934C1293.28 429.934 1294.69 430.604 1295.72 431.943C1296.75 433.283 1297.27 435.147 1297.27 437.535V437.768ZM1294.74 437.48C1294.74 435.812 1294.39 434.495 1293.68 433.529C1292.97 432.563 1291.99 432.08 1290.75 432.08C1289.22 432.08 1288.07 432.759 1287.31 434.117V441.186C1288.06 442.535 1289.22 443.209 1290.78 443.209C1291.99 443.209 1292.95 442.73 1293.66 441.773C1294.38 440.807 1294.74 439.376 1294.74 437.48ZM1303.25 445H1300.72V424H1303.25V445ZM1316.44 445C1316.3 444.708 1316.18 444.189 1316.09 443.441C1314.91 444.663 1313.51 445.273 1311.88 445.273C1310.42 445.273 1309.22 444.863 1308.28 444.043C1307.35 443.214 1306.89 442.165 1306.89 440.898C1306.89 439.358 1307.47 438.164 1308.64 437.316C1309.81 436.46 1311.46 436.031 1313.58 436.031H1316.05V434.869C1316.05 433.985 1315.78 433.283 1315.25 432.764C1314.72 432.235 1313.94 431.971 1312.91 431.971C1312.01 431.971 1311.26 432.199 1310.65 432.654C1310.03 433.11 1309.73 433.661 1309.73 434.309H1307.19C1307.19 433.57 1307.45 432.859 1307.97 432.176C1308.49 431.483 1309.21 430.936 1310.1 430.535C1311 430.134 1311.99 429.934 1313.07 429.934C1314.77 429.934 1316.11 430.362 1317.07 431.219C1318.04 432.066 1318.54 433.238 1318.58 434.732V441.541C1318.58 442.899 1318.75 443.979 1319.09 444.781V445H1316.44ZM1312.24 443.072C1313.04 443.072 1313.79 442.867 1314.5 442.457C1315.21 442.047 1315.73 441.514 1316.05 440.857V437.822H1314.06C1310.96 437.822 1309.41 438.729 1309.41 440.543C1309.41 441.336 1309.68 441.956 1310.21 442.402C1310.74 442.849 1311.42 443.072 1312.24 443.072ZM1324.93 430.207L1325.01 432.066C1326.14 430.645 1327.62 429.934 1329.44 429.934C1332.57 429.934 1334.15 431.697 1334.17 435.225V445H1331.65V435.211C1331.64 434.145 1331.39 433.356 1330.91 432.846C1330.43 432.335 1329.69 432.08 1328.68 432.08C1327.86 432.08 1327.14 432.299 1326.52 432.736C1325.9 433.174 1325.42 433.748 1325.07 434.459V445H1322.54V430.207H1324.93ZM1347.12 445C1346.98 444.708 1346.86 444.189 1346.77 443.441C1345.59 444.663 1344.19 445.273 1342.56 445.273C1341.1 445.273 1339.9 444.863 1338.96 444.043C1338.03 443.214 1337.57 442.165 1337.57 440.898C1337.57 439.358 1338.15 438.164 1339.32 437.316C1340.49 436.46 1342.14 436.031 1344.26 436.031H1346.73V434.869C1346.73 433.985 1346.46 433.283 1345.93 432.764C1345.4 432.235 1344.62 431.971 1343.59 431.971C1342.69 431.971 1341.94 432.199 1341.33 432.654C1340.71 433.11 1340.41 433.661 1340.41 434.309H1337.87C1337.87 433.57 1338.13 432.859 1338.65 432.176C1339.17 431.483 1339.88 430.936 1340.78 430.535C1341.68 430.134 1342.67 429.934 1343.74 429.934C1345.45 429.934 1346.78 430.362 1347.75 431.219C1348.72 432.066 1349.22 433.238 1349.25 434.732V441.541C1349.25 442.899 1349.43 443.979 1349.77 444.781V445H1347.12ZM1342.92 443.072C1343.72 443.072 1344.47 442.867 1345.18 442.457C1345.89 442.047 1346.41 441.514 1346.73 440.857V437.822H1344.74C1341.64 437.822 1340.09 438.729 1340.09 440.543C1340.09 441.336 1340.36 441.956 1340.89 442.402C1341.42 442.849 1342.1 443.072 1342.92 443.072ZM1356.65 426.625V430.207H1359.41V432.162H1356.65V441.336C1356.65 441.928 1356.77 442.375 1357.02 442.676C1357.27 442.967 1357.69 443.113 1358.28 443.113C1358.57 443.113 1358.97 443.059 1359.48 442.949V445C1358.82 445.182 1358.17 445.273 1357.54 445.273C1356.41 445.273 1355.56 444.932 1354.98 444.248C1354.41 443.564 1354.12 442.594 1354.12 441.336V432.162H1351.43V430.207H1354.12V426.625H1356.65ZM1365.13 445H1362.6V430.207H1365.13V445ZM1362.39 426.283C1362.39 425.873 1362.52 425.527 1362.76 425.244C1363.02 424.962 1363.39 424.82 1363.88 424.82C1364.38 424.82 1364.75 424.962 1365 425.244C1365.26 425.527 1365.39 425.873 1365.39 426.283C1365.39 426.693 1365.26 427.035 1365 427.309C1364.75 427.582 1364.38 427.719 1363.88 427.719C1363.39 427.719 1363.02 427.582 1362.76 427.309C1362.52 427.035 1362.39 426.693 1362.39 426.283ZM1368.52 437.467C1368.52 436.018 1368.8 434.714 1369.37 433.557C1369.94 432.399 1370.73 431.506 1371.74 430.877C1372.77 430.248 1373.93 429.934 1375.23 429.934C1377.25 429.934 1378.87 430.631 1380.11 432.025C1381.36 433.42 1381.99 435.275 1381.99 437.59V437.768C1381.99 439.208 1381.71 440.502 1381.15 441.65C1380.6 442.79 1379.82 443.678 1378.79 444.316C1377.77 444.954 1376.59 445.273 1375.26 445.273C1373.25 445.273 1371.63 444.576 1370.38 443.182C1369.14 441.787 1368.52 439.941 1368.52 437.645V437.467ZM1371.06 437.768C1371.06 439.408 1371.44 440.725 1372.2 441.719C1372.96 442.712 1373.98 443.209 1375.26 443.209C1376.54 443.209 1377.56 442.708 1378.32 441.705C1379.08 440.693 1379.46 439.281 1379.46 437.467C1379.46 435.844 1379.07 434.532 1378.29 433.529C1377.53 432.518 1376.51 432.012 1375.23 432.012C1373.98 432.012 1372.98 432.508 1372.21 433.502C1371.44 434.495 1371.06 435.917 1371.06 437.768ZM1387.55 430.207L1387.63 432.066C1388.76 430.645 1390.24 429.934 1392.06 429.934C1395.19 429.934 1396.76 431.697 1396.79 435.225V445H1394.26V435.211C1394.25 434.145 1394.01 433.356 1393.52 432.846C1393.05 432.335 1392.31 432.08 1391.3 432.08C1390.48 432.08 1389.76 432.299 1389.14 432.736C1388.52 433.174 1388.03 433.748 1387.69 434.459V445H1385.16V430.207H1387.55ZM1409.22 441.076C1409.22 440.393 1408.96 439.864 1408.44 439.49C1407.93 439.107 1407.03 438.779 1405.75 438.506C1404.47 438.232 1403.45 437.904 1402.7 437.521C1401.95 437.139 1401.39 436.683 1401.03 436.154C1400.67 435.626 1400.5 434.997 1400.5 434.268C1400.5 433.055 1401.01 432.03 1402.03 431.191C1403.06 430.353 1404.37 429.934 1405.97 429.934C1407.64 429.934 1409 430.367 1410.04 431.232C1411.09 432.098 1411.61 433.206 1411.61 434.555H1409.07C1409.07 433.862 1408.77 433.265 1408.18 432.764C1407.6 432.262 1406.86 432.012 1405.97 432.012C1405.05 432.012 1404.33 432.212 1403.81 432.613C1403.29 433.014 1403.03 433.538 1403.03 434.186C1403.03 434.796 1403.27 435.257 1403.75 435.566C1404.23 435.876 1405.1 436.173 1406.36 436.455C1407.63 436.738 1408.65 437.075 1409.44 437.467C1410.22 437.859 1410.8 438.333 1411.17 438.889C1411.56 439.436 1411.75 440.105 1411.75 440.898C1411.75 442.22 1411.22 443.282 1410.16 444.084C1409.11 444.877 1407.73 445.273 1406.05 445.273C1404.86 445.273 1403.81 445.064 1402.9 444.645C1401.99 444.225 1401.28 443.642 1400.76 442.895C1400.25 442.138 1399.99 441.322 1399.99 440.447H1402.52C1402.57 441.295 1402.9 441.969 1403.53 442.471C1404.17 442.963 1405.01 443.209 1406.05 443.209C1407 443.209 1407.77 443.018 1408.34 442.635C1408.93 442.243 1409.22 441.723 1409.22 441.076ZM1414.96 448.965L1413.53 447.98C1414.38 446.786 1414.83 445.556 1414.87 444.289V442.006H1417.34V443.988C1417.34 444.909 1417.11 445.829 1416.66 446.75C1416.21 447.671 1415.65 448.409 1414.96 448.965ZM1262.67 475.947H1257.99V484H1255.36V464.094H1261.95C1264.19 464.094 1265.91 464.604 1267.11 465.625C1268.33 466.646 1268.93 468.132 1268.93 470.082C1268.93 471.322 1268.6 472.402 1267.92 473.322C1267.26 474.243 1266.33 474.931 1265.13 475.387L1269.81 483.836V484H1266.99L1262.67 475.947ZM1257.99 473.801H1262.03C1263.33 473.801 1264.37 473.464 1265.13 472.789C1265.91 472.115 1266.29 471.212 1266.29 470.082C1266.29 468.852 1265.92 467.908 1265.19 467.252C1264.46 466.596 1263.4 466.263 1262.01 466.254H1257.99V473.801ZM1278.37 484.273C1276.36 484.273 1274.73 483.617 1273.47 482.305C1272.21 480.983 1271.58 479.219 1271.58 477.014V476.549C1271.58 475.081 1271.86 473.773 1272.42 472.625C1272.98 471.467 1273.77 470.565 1274.77 469.918C1275.78 469.262 1276.88 468.934 1278.05 468.934C1279.97 468.934 1281.47 469.567 1282.54 470.834C1283.6 472.101 1284.14 473.915 1284.14 476.275V477.328H1274.11C1274.15 478.786 1274.57 479.967 1275.39 480.869C1276.21 481.762 1277.24 482.209 1278.5 482.209C1279.4 482.209 1280.15 482.027 1280.77 481.662C1281.39 481.298 1281.93 480.814 1282.4 480.213L1283.94 481.416C1282.7 483.321 1280.85 484.273 1278.37 484.273ZM1278.05 471.012C1277.03 471.012 1276.17 471.385 1275.48 472.133C1274.79 472.871 1274.36 473.91 1274.2 475.25H1281.61V475.059C1281.53 473.773 1281.19 472.78 1280.57 472.078C1279.95 471.367 1279.11 471.012 1278.05 471.012ZM1295.69 480.076C1295.69 479.393 1295.43 478.864 1294.91 478.49C1294.4 478.107 1293.5 477.779 1292.22 477.506C1290.94 477.232 1289.92 476.904 1289.17 476.521C1288.42 476.139 1287.86 475.683 1287.5 475.154C1287.14 474.626 1286.97 473.997 1286.97 473.268C1286.97 472.055 1287.48 471.03 1288.5 470.191C1289.53 469.353 1290.84 468.934 1292.43 468.934C1294.11 468.934 1295.47 469.367 1296.51 470.232C1297.56 471.098 1298.08 472.206 1298.08 473.555H1295.54C1295.54 472.862 1295.24 472.265 1294.65 471.764C1294.07 471.262 1293.33 471.012 1292.43 471.012C1291.51 471.012 1290.79 471.212 1290.27 471.613C1289.75 472.014 1289.49 472.538 1289.49 473.186C1289.49 473.796 1289.74 474.257 1290.22 474.566C1290.7 474.876 1291.57 475.173 1292.83 475.455C1294.1 475.738 1295.12 476.075 1295.91 476.467C1296.69 476.859 1297.27 477.333 1297.64 477.889C1298.03 478.436 1298.22 479.105 1298.22 479.898C1298.22 481.22 1297.69 482.282 1296.63 483.084C1295.57 483.877 1294.2 484.273 1292.52 484.273C1291.33 484.273 1290.28 484.064 1289.37 483.645C1288.46 483.225 1287.74 482.642 1287.23 481.895C1286.72 481.138 1286.46 480.322 1286.46 479.447H1288.99C1289.03 480.295 1289.37 480.969 1290 481.471C1290.64 481.963 1291.48 482.209 1292.52 482.209C1293.47 482.209 1294.24 482.018 1294.81 481.635C1295.4 481.243 1295.69 480.723 1295.69 480.076ZM1300.84 476.467C1300.84 475.018 1301.13 473.714 1301.69 472.557C1302.26 471.399 1303.06 470.506 1304.07 469.877C1305.09 469.248 1306.25 468.934 1307.56 468.934C1309.57 468.934 1311.2 469.631 1312.44 471.025C1313.69 472.42 1314.31 474.275 1314.31 476.59V476.768C1314.31 478.208 1314.03 479.502 1313.48 480.65C1312.93 481.79 1312.14 482.678 1311.11 483.316C1310.09 483.954 1308.91 484.273 1307.58 484.273C1305.58 484.273 1303.95 483.576 1302.7 482.182C1301.46 480.787 1300.84 478.941 1300.84 476.645V476.467ZM1303.39 476.768C1303.39 478.408 1303.76 479.725 1304.52 480.719C1305.29 481.712 1306.31 482.209 1307.58 482.209C1308.87 482.209 1309.89 481.708 1310.65 480.705C1311.4 479.693 1311.78 478.281 1311.78 476.467C1311.78 474.844 1311.39 473.532 1310.62 472.529C1309.85 471.518 1308.83 471.012 1307.56 471.012C1306.31 471.012 1305.3 471.508 1304.53 472.502C1303.77 473.495 1303.39 474.917 1303.39 476.768ZM1326.61 482.537C1325.63 483.695 1324.19 484.273 1322.28 484.273C1320.7 484.273 1319.5 483.818 1318.67 482.906C1317.85 481.986 1317.44 480.628 1317.43 478.832V469.207H1319.96V478.764C1319.96 481.006 1320.87 482.127 1322.69 482.127C1324.62 482.127 1325.91 481.407 1326.55 479.967V469.207H1329.08V484H1326.67L1326.61 482.537ZM1340.08 471.477C1339.7 471.413 1339.28 471.381 1338.84 471.381C1337.18 471.381 1336.05 472.087 1335.46 473.5V484H1332.93V469.207H1335.39L1335.43 470.916C1336.26 469.594 1337.44 468.934 1338.96 468.934C1339.45 468.934 1339.83 468.997 1340.08 469.125V471.477ZM1348.08 482.209C1348.98 482.209 1349.77 481.936 1350.44 481.389C1351.12 480.842 1351.49 480.158 1351.57 479.338H1353.96C1353.91 480.186 1353.62 480.992 1353.08 481.758C1352.55 482.523 1351.83 483.134 1350.92 483.59C1350.03 484.046 1349.08 484.273 1348.08 484.273C1346.06 484.273 1344.46 483.604 1343.27 482.264C1342.08 480.915 1341.49 479.074 1341.49 476.74V476.316C1341.49 474.876 1341.75 473.596 1342.28 472.475C1342.81 471.354 1343.57 470.483 1344.55 469.863C1345.55 469.243 1346.72 468.934 1348.07 468.934C1349.72 468.934 1351.1 469.43 1352.19 470.424C1353.3 471.417 1353.88 472.707 1353.96 474.293H1351.57C1351.49 473.336 1351.13 472.552 1350.47 471.941C1349.82 471.322 1349.02 471.012 1348.07 471.012C1346.78 471.012 1345.78 471.477 1345.07 472.406C1344.37 473.327 1344.02 474.662 1344.02 476.412V476.891C1344.02 478.595 1344.37 479.908 1345.07 480.828C1345.77 481.749 1346.78 482.209 1348.08 482.209ZM1362.94 484.273C1360.94 484.273 1359.3 483.617 1358.05 482.305C1356.79 480.983 1356.16 479.219 1356.16 477.014V476.549C1356.16 475.081 1356.44 473.773 1356.99 472.625C1357.56 471.467 1358.34 470.565 1359.34 469.918C1360.36 469.262 1361.45 468.934 1362.63 468.934C1364.55 468.934 1366.04 469.567 1367.11 470.834C1368.18 472.101 1368.71 473.915 1368.71 476.275V477.328H1358.69C1358.72 478.786 1359.15 479.967 1359.96 480.869C1360.78 481.762 1361.82 482.209 1363.08 482.209C1363.97 482.209 1364.73 482.027 1365.35 481.662C1365.97 481.298 1366.51 480.814 1366.97 480.213L1368.52 481.416C1367.28 483.321 1365.42 484.273 1362.94 484.273ZM1362.63 471.012C1361.61 471.012 1360.75 471.385 1360.06 472.133C1359.36 472.871 1358.93 473.91 1358.77 475.25H1366.18V475.059C1366.11 473.773 1365.76 472.78 1365.14 472.078C1364.52 471.367 1363.68 471.012 1362.63 471.012ZM1380.26 480.076C1380.26 479.393 1380 478.864 1379.48 478.49C1378.97 478.107 1378.08 477.779 1376.79 477.506C1375.51 477.232 1374.5 476.904 1373.74 476.521C1372.99 476.139 1372.44 475.683 1372.07 475.154C1371.72 474.626 1371.54 473.997 1371.54 473.268C1371.54 472.055 1372.05 471.03 1373.07 470.191C1374.1 469.353 1375.41 468.934 1377.01 468.934C1378.69 468.934 1380.04 469.367 1381.08 470.232C1382.13 471.098 1382.66 472.206 1382.66 473.555H1380.11C1380.11 472.862 1379.82 472.265 1379.22 471.764C1378.64 471.262 1377.9 471.012 1377.01 471.012C1376.09 471.012 1375.37 471.212 1374.85 471.613C1374.33 472.014 1374.07 472.538 1374.07 473.186C1374.07 473.796 1374.31 474.257 1374.79 474.566C1375.28 474.876 1376.15 475.173 1377.41 475.455C1378.67 475.738 1379.7 476.075 1380.48 476.467C1381.27 476.859 1381.84 477.333 1382.22 477.889C1382.6 478.436 1382.79 479.105 1382.79 479.898C1382.79 481.22 1382.26 482.282 1381.21 483.084C1380.15 483.877 1378.78 484.273 1377.09 484.273C1375.91 484.273 1374.86 484.064 1373.95 483.645C1373.03 483.225 1372.32 482.642 1371.8 481.895C1371.29 481.138 1371.03 480.322 1371.03 479.447H1373.56C1373.61 480.295 1373.95 480.969 1374.58 481.471C1375.21 481.963 1376.05 482.209 1377.09 482.209C1378.05 482.209 1378.81 482.018 1379.39 481.635C1379.97 481.243 1380.26 480.723 1380.26 480.076ZM1386 487.965L1384.57 486.98C1385.43 485.786 1385.87 484.556 1385.91 483.289V481.006H1388.38V482.988C1388.38 483.909 1388.16 484.829 1387.7 485.75C1387.25 486.671 1386.69 487.409 1386 487.965ZM1264.11 523C1263.96 522.708 1263.84 522.189 1263.75 521.441C1262.58 522.663 1261.17 523.273 1259.54 523.273C1258.08 523.273 1256.88 522.863 1255.94 522.043C1255.01 521.214 1254.55 520.165 1254.55 518.898C1254.55 517.358 1255.13 516.164 1256.3 515.316C1257.48 514.46 1259.13 514.031 1261.25 514.031H1263.71V512.869C1263.71 511.985 1263.45 511.283 1262.92 510.764C1262.39 510.235 1261.61 509.971 1260.58 509.971C1259.68 509.971 1258.92 510.199 1258.31 510.654C1257.7 511.11 1257.39 511.661 1257.39 512.309H1254.85C1254.85 511.57 1255.11 510.859 1255.63 510.176C1256.16 509.483 1256.87 508.936 1257.76 508.535C1258.66 508.134 1259.65 507.934 1260.73 507.934C1262.43 507.934 1263.77 508.362 1264.74 509.219C1265.7 510.066 1266.2 511.238 1266.24 512.732V519.541C1266.24 520.899 1266.41 521.979 1266.76 522.781V523H1264.11ZM1259.91 521.072C1260.7 521.072 1261.45 520.867 1262.16 520.457C1262.88 520.047 1263.39 519.514 1263.71 518.857V515.822H1261.73C1258.63 515.822 1257.08 516.729 1257.08 518.543C1257.08 519.336 1257.34 519.956 1257.87 520.402C1258.4 520.849 1259.08 521.072 1259.91 521.072ZM1272.6 508.207L1272.68 510.066C1273.81 508.645 1275.29 507.934 1277.11 507.934C1280.23 507.934 1281.81 509.697 1281.84 513.225V523H1279.31V513.211C1279.3 512.145 1279.05 511.356 1278.57 510.846C1278.1 510.335 1277.35 510.08 1276.34 510.08C1275.52 510.08 1274.8 510.299 1274.18 510.736C1273.56 511.174 1273.08 511.748 1272.73 512.459V523H1270.2V508.207H1272.6ZM1285.04 515.48C1285.04 513.211 1285.58 511.388 1286.65 510.012C1287.73 508.626 1289.13 507.934 1290.88 507.934C1292.61 507.934 1293.98 508.526 1294.99 509.711V502H1297.52V523H1295.2L1295.07 521.414C1294.06 522.654 1292.65 523.273 1290.85 523.273C1289.13 523.273 1287.74 522.572 1286.65 521.168C1285.58 519.764 1285.04 517.932 1285.04 515.672V515.48ZM1287.57 515.768C1287.57 517.445 1287.91 518.757 1288.61 519.705C1289.3 520.653 1290.26 521.127 1291.48 521.127C1293.08 521.127 1294.25 520.407 1294.99 518.967V512.172C1294.23 510.777 1293.07 510.08 1291.5 510.08C1290.27 510.08 1289.3 510.559 1288.61 511.516C1287.91 512.473 1287.57 513.89 1287.57 515.768ZM1322.01 505.254H1315.61V523H1313V505.254H1306.61V503.094H1322.01V505.254ZM1327.31 523H1324.78V508.207H1327.31V523ZM1324.58 504.283C1324.58 503.873 1324.7 503.527 1324.95 503.244C1325.2 502.962 1325.58 502.82 1326.07 502.82C1326.56 502.82 1326.93 502.962 1327.19 503.244C1327.44 503.527 1327.57 503.873 1327.57 504.283C1327.57 504.693 1327.44 505.035 1327.19 505.309C1326.93 505.582 1326.56 505.719 1326.07 505.719C1325.58 505.719 1325.2 505.582 1324.95 505.309C1324.7 505.035 1324.58 504.693 1324.58 504.283ZM1343.87 515.768C1343.87 518.019 1343.35 519.833 1342.32 521.209C1341.29 522.585 1339.9 523.273 1338.14 523.273C1336.34 523.273 1334.93 522.704 1333.9 521.564V528.688H1331.37V508.207H1333.68L1333.81 509.848C1334.84 508.572 1336.27 507.934 1338.1 507.934C1339.88 507.934 1341.28 508.604 1342.31 509.943C1343.35 511.283 1343.87 513.147 1343.87 515.535V515.768ZM1341.34 515.48C1341.34 513.812 1340.98 512.495 1340.27 511.529C1339.56 510.563 1338.59 510.08 1337.35 510.08C1335.82 510.08 1334.67 510.759 1333.9 512.117V519.186C1334.66 520.535 1335.82 521.209 1337.37 521.209C1338.59 521.209 1339.55 520.73 1340.26 519.773C1340.98 518.807 1341.34 517.376 1341.34 515.48ZM1355.71 519.076C1355.71 518.393 1355.45 517.864 1354.93 517.49C1354.42 517.107 1353.52 516.779 1352.24 516.506C1350.96 516.232 1349.94 515.904 1349.19 515.521C1348.44 515.139 1347.88 514.683 1347.52 514.154C1347.16 513.626 1346.99 512.997 1346.99 512.268C1346.99 511.055 1347.5 510.03 1348.52 509.191C1349.55 508.353 1350.86 507.934 1352.45 507.934C1354.13 507.934 1355.49 508.367 1356.53 509.232C1357.58 510.098 1358.1 511.206 1358.1 512.555H1355.56C1355.56 511.862 1355.26 511.265 1354.67 510.764C1354.09 510.262 1353.35 510.012 1352.45 510.012C1351.53 510.012 1350.81 510.212 1350.29 510.613C1349.77 511.014 1349.51 511.538 1349.51 512.186C1349.51 512.796 1349.76 513.257 1350.24 513.566C1350.72 513.876 1351.59 514.173 1352.85 514.455C1354.12 514.738 1355.14 515.075 1355.93 515.467C1356.71 515.859 1357.29 516.333 1357.66 516.889C1358.05 517.436 1358.24 518.105 1358.24 518.898C1358.24 520.22 1357.71 521.282 1356.65 522.084C1355.59 522.877 1354.22 523.273 1352.54 523.273C1351.35 523.273 1350.3 523.064 1349.39 522.645C1348.48 522.225 1347.76 521.642 1347.24 520.895C1346.73 520.138 1346.48 519.322 1346.48 518.447H1349.01C1349.05 519.295 1349.39 519.969 1350.02 520.471C1350.66 520.963 1351.5 521.209 1352.54 521.209C1353.49 521.209 1354.26 521.018 1354.83 520.635C1355.42 520.243 1355.71 519.723 1355.71 519.076Z" fill="white"/>
<path d="M1193.73 448.269C1192.6 448.269 1191.69 449.182 1191.69 450.309C1191.69 451.435 1192.6 452.348 1193.73 452.348C1200.46 452.348 1205.94 457.836 1205.94 464.582C1205.94 465.709 1206.85 466.622 1207.97 466.622C1209.1 466.622 1210.01 465.709 1210.01 464.582C1210.01 455.587 1202.7 448.269 1193.73 448.269Z" fill="#FFCA28"/>
<path d="M1188.48 440.662C1179.29 442.587 1171.84 449.986 1169.87 459.256C1168.22 467.083 1170.26 474.942 1175.47 480.817C1178.02 483.688 1179.48 487.479 1179.48 491.227V495.305C1179.48 498.019 1181.26 500.324 1183.7 501.122C1184.51 505.884 1188.63 509.715 1193.73 509.715C1198.83 509.715 1202.95 505.885 1203.75 501.122C1206.2 500.324 1207.97 498.019 1207.97 495.305V491.227C1207.97 487.471 1209.44 483.727 1212.1 480.682C1216 476.226 1218.15 470.508 1218.15 464.582C1218.15 449.144 1204.05 437.404 1188.48 440.662ZM1193.73 505.637C1191.11 505.637 1188.82 503.833 1187.97 501.409H1199.48C1198.64 503.833 1196.34 505.637 1193.73 505.637ZM1203.9 495.305C1203.9 496.43 1202.99 497.344 1201.87 497.344H1185.59C1184.47 497.344 1183.55 496.43 1183.55 495.305V493.266H1203.9V495.305ZM1209.04 477.994C1206.2 481.239 1204.46 485.151 1204.01 489.188H1183.44C1183 485.149 1181.26 481.198 1178.51 478.106C1174.17 473.21 1172.47 466.648 1173.86 460.102C1175.47 452.46 1181.69 446.252 1189.32 444.654C1202.34 441.926 1214.08 451.729 1214.08 464.582C1214.08 469.519 1212.29 474.282 1209.04 477.994Z" fill="#FFCA28"/>
<path d="M1165.1 464.582H1161.03C1159.91 464.582 1159 465.495 1159 466.622C1159 467.748 1159.91 468.661 1161.03 468.661H1165.1C1166.23 468.661 1167.14 467.748 1167.14 466.622C1167.14 465.495 1166.23 464.582 1165.1 464.582Z" fill="#FFCA28"/>
<path d="M1165.95 454.387L1163.07 451.503C1162.28 450.707 1160.99 450.707 1160.19 451.503C1159.4 452.299 1159.4 453.59 1160.19 454.387L1163.07 457.27C1163.86 458.067 1165.15 458.067 1165.95 457.27C1166.74 456.474 1166.74 455.183 1165.95 454.387Z" fill="#FFCA28"/>
<path d="M1165.95 475.973C1165.15 475.176 1163.86 475.176 1163.07 475.973L1160.19 478.856C1159.4 479.653 1159.4 480.944 1160.19 481.74C1160.99 482.536 1162.27 482.536 1163.07 481.74L1165.95 478.856C1166.74 478.06 1166.74 476.769 1165.95 475.973Z" fill="#FFCA28"/>
<path d="M1226.42 464.582H1222.35C1221.23 464.582 1220.32 465.495 1220.32 466.622C1220.32 467.748 1221.23 468.661 1222.35 468.661H1226.42C1227.55 468.661 1228.46 467.748 1228.46 466.622C1228.46 465.495 1227.55 464.582 1226.42 464.582Z" fill="#FFCA28"/>
<path d="M1227.27 451.503C1226.47 450.707 1225.18 450.707 1224.39 451.503L1221.51 454.387C1220.72 455.183 1220.72 456.474 1221.51 457.27C1222.3 458.067 1223.59 458.067 1224.39 457.27L1227.27 454.387C1228.06 453.59 1228.06 452.299 1227.27 451.503Z" fill="#FFCA28"/>
<path d="M1227.27 478.856L1224.39 475.973C1223.59 475.176 1222.3 475.176 1221.51 475.973C1220.72 476.769 1220.72 478.06 1221.51 478.856L1224.39 481.74C1225.18 482.536 1226.47 482.536 1227.27 481.74C1228.06 480.944 1228.06 479.653 1227.27 478.856Z" fill="#FFCA28"/>
</g>
<defs>
<linearGradient id="paint0_linear" x1="724" y1="0" x2="724" y2="746" gradientUnits="userSpaceOnUse">
<stop stop-color="#0981E2"/>
<stop offset="1" stop-color="#0981E1"/>
</linearGradient>
<radialGradient id="paint1_radial" cx="0" cy="0" r="1" gradientUnits="userSpaceOnUse" gradientTransform="translate(798.416 52.4251) scale(38.7924 38.8734)">
<stop stop-color="white" stop-opacity="0.1"/>
<stop offset="1" stop-color="white" stop-opacity="0"/>
</radialGradient>
<linearGradient id="paint2_linear" x1="1051.82" y1="24.2817" x2="1134.84" y2="67.7694" gradientUnits="userSpaceOnUse">
<stop stop-color="white" stop-opacity="0.1"/>
<stop offset="0.14" stop-color="white" stop-opacity="0.08"/>
<stop offset="0.61" stop-color="white" stop-opacity="0.02"/>
<stop offset="1" stop-color="white" stop-opacity="0"/>
</linearGradient>
<clipPath id="clip0">
<rect width="1437" height="746" fill="white"/>
</clipPath>
</defs>
</svg>
