<svg width="1437" height="746" viewBox="0 0 1437 746" fill="none" xmlns="http://www.w3.org/2000/svg">
<g clip-path="url(#clip0)">
<rect width="1437" height="746" fill="white"/>
<rect x="2" width="1444" height="746" fill="url(#paint0_linear)"/>
<path d="M-17.6847 -11.3015L1431.78 255.812L1431.34 746.239L457.167 747.11L-18.3605 747.535L-17.6847 -11.3015Z" fill="#188BF0"/>
<rect x="19" y="142" width="1086" height="519" rx="18" fill="#2096FD"/>
<path d="M1132 401C1132 391.059 1140.06 383 1150 383H1437V568H1150C1140.06 568 1132 559.941 1132 550V401Z" fill="#2396FC"/>
<path d="M238.847 205.129L350.382 205L163.256 401.955L114.488 453.024L59 394.52L238.847 205.129ZM237.809 380.987C239.256 378.974 241.92 379.966 243.941 379.707L350.286 379.736L253.364 481.701L197.589 423.326L237.809 380.987Z" fill="#44D1FD"/>
<path d="M141.993 481.802L197.59 423.326L253.364 481.701L253.596 481.96L197.603 540.378L141.993 481.802V481.802Z" fill="#1FBCFD"/>
<path d="M197.603 540.378L253.596 481.96L350.327 583.925C313.891 584.012 277.468 583.896 241.046 583.983C238.97 584.472 237.686 582.473 236.361 581.236L197.603 540.378V540.378Z" fill="#08589C"/>
<path d="M453.791 248.836V286.369C453.791 292.335 451.875 297.067 448.043 300.564C444.237 304.036 439.158 305.771 432.806 305.771C426.377 305.771 421.272 304.061 417.492 300.641C413.712 297.195 411.822 292.425 411.822 286.33V248.836H421.542V286.407C421.542 290.162 422.494 293.029 424.397 295.009C426.3 296.989 429.103 297.979 432.806 297.979C440.315 297.979 444.07 294.019 444.07 286.099V248.836H453.791ZM473.309 305H463.936V245.75H473.309V305ZM495.296 253.118V263.263H502.664V270.206H495.296V293.505C495.296 295.099 495.605 296.257 496.222 296.977C496.865 297.671 497.997 298.018 499.617 298.018C500.697 298.018 501.79 297.889 502.896 297.632V304.884C500.761 305.476 498.704 305.771 496.724 305.771C489.523 305.771 485.923 301.798 485.923 293.852V270.206H479.057V263.263H485.923V253.118H495.296ZM519.83 305H510.456V263.263H519.83V305ZM509.877 252.423C509.877 250.983 510.327 249.787 511.228 248.836C512.153 247.884 513.465 247.409 515.162 247.409C516.859 247.409 518.171 247.884 519.097 248.836C520.022 249.787 520.485 250.983 520.485 252.423C520.485 253.838 520.022 255.021 519.097 255.972C518.171 256.898 516.859 257.361 515.162 257.361C513.465 257.361 512.153 256.898 511.228 255.972C510.327 255.021 509.877 253.838 509.877 252.423ZM538.885 263.263L539.155 267.622C542.087 264.201 546.099 262.491 551.19 262.491C556.771 262.491 560.59 264.626 562.647 268.895C565.681 264.626 569.95 262.491 575.454 262.491C580.057 262.491 583.477 263.764 585.714 266.31C587.977 268.856 589.135 272.611 589.186 277.574V305H579.812V277.844C579.812 275.195 579.234 273.253 578.077 272.019C576.919 270.785 575.004 270.167 572.329 270.167C570.195 270.167 568.446 270.746 567.083 271.903C565.746 273.035 564.807 274.526 564.267 276.378L564.306 305H554.932V277.535C554.804 272.623 552.296 270.167 547.41 270.167C543.656 270.167 540.994 271.698 539.425 274.758V305H530.052V263.263H538.885ZM623.749 305C623.337 304.203 622.977 302.904 622.668 301.104C619.685 304.216 616.034 305.771 611.713 305.771C607.522 305.771 604.101 304.576 601.453 302.184C598.804 299.792 597.479 296.835 597.479 293.312C597.479 288.863 599.125 285.456 602.417 283.09C605.734 280.698 610.466 279.502 616.612 279.502H622.36V276.764C622.36 274.604 621.756 272.881 620.547 271.595C619.338 270.283 617.5 269.627 615.031 269.627C612.896 269.627 611.148 270.167 609.785 271.248C608.422 272.302 607.74 273.652 607.74 275.298H598.367C598.367 273.009 599.125 270.875 600.643 268.895C602.16 266.889 604.217 265.32 606.814 264.188C609.438 263.057 612.356 262.491 615.571 262.491C620.457 262.491 624.353 263.726 627.259 266.194C630.165 268.637 631.656 272.083 631.733 276.532V295.356C631.733 299.111 632.261 302.107 633.315 304.344V305H623.749ZM613.449 298.25C615.301 298.25 617.037 297.799 618.657 296.899C620.303 295.999 621.537 294.791 622.36 293.273V285.404H617.307C613.835 285.404 611.225 286.009 609.476 287.217C607.727 288.426 606.853 290.136 606.853 292.348C606.853 294.148 607.444 295.588 608.627 296.668C609.836 297.722 611.443 298.25 613.449 298.25ZM653.296 253.118V263.263H660.664V270.206H653.296V293.505C653.296 295.099 653.605 296.257 654.222 296.977C654.865 297.671 655.997 298.018 657.617 298.018C658.697 298.018 659.79 297.889 660.896 297.632V304.884C658.761 305.476 656.704 305.771 654.724 305.771C647.523 305.771 643.923 301.798 643.923 293.852V270.206H637.057V263.263H643.923V253.118H653.296ZM686.239 305.771C680.298 305.771 675.477 303.907 671.773 300.178C668.096 296.424 666.257 291.435 666.257 285.211V284.054C666.257 279.888 667.055 276.172 668.649 272.906C670.269 269.615 672.532 267.056 675.438 265.23C678.344 263.404 681.584 262.491 685.159 262.491C690.842 262.491 695.227 264.304 698.312 267.93C701.424 271.556 702.98 276.687 702.98 283.321V287.102H675.708C675.991 290.548 677.135 293.273 679.141 295.279C681.173 297.285 683.719 298.288 686.779 298.288C691.073 298.288 694.571 296.552 697.271 293.081L702.324 297.902C700.653 300.397 698.415 302.338 695.612 303.727C692.835 305.09 689.71 305.771 686.239 305.771ZM685.12 270.013C682.549 270.013 680.465 270.913 678.871 272.713C677.302 274.514 676.299 277.021 675.862 280.235H693.722V279.541C693.516 276.404 692.681 274.038 691.215 272.443C689.749 270.823 687.717 270.013 685.12 270.013ZM773.918 297.709C771.886 300.358 769.07 302.364 765.47 303.727C761.87 305.09 757.781 305.771 753.204 305.771C748.498 305.771 744.332 304.704 740.706 302.57C737.08 300.435 734.277 297.388 732.296 293.428C730.342 289.442 729.326 284.8 729.249 279.502V275.105C729.249 266.619 731.281 259.997 735.344 255.239C739.407 250.456 745.077 248.064 752.355 248.064C758.604 248.064 763.567 249.607 767.245 252.693C770.922 255.779 773.134 260.228 773.879 266.04H764.313C763.233 259.277 759.311 255.895 752.548 255.895C748.176 255.895 744.846 257.477 742.557 260.64C740.294 263.777 739.124 268.393 739.047 274.488V278.808C739.047 284.877 740.32 289.596 742.866 292.965C745.437 296.308 748.999 297.979 753.551 297.979C758.54 297.979 762.089 296.848 764.197 294.585V283.591H752.625V276.185H773.918V297.709ZM809.021 300.911C806.269 304.151 802.36 305.771 797.294 305.771C792.768 305.771 789.335 304.447 786.995 301.798C784.68 299.15 783.523 295.318 783.523 290.303V263.263H792.896V290.188C792.896 295.485 795.095 298.134 799.493 298.134C804.044 298.134 807.118 296.501 808.712 293.235V263.263H818.085V305H809.252L809.021 300.911ZM837.604 305H828.23V263.263H837.604V305ZM827.652 252.423C827.652 250.983 828.102 249.787 829.002 248.836C829.928 247.884 831.239 247.409 832.937 247.409C834.634 247.409 835.945 247.884 836.871 248.836C837.797 249.787 838.26 250.983 838.26 252.423C838.26 253.838 837.797 255.021 836.871 255.972C835.945 256.898 834.634 257.361 832.937 257.361C831.239 257.361 829.928 256.898 829.002 255.972C828.102 255.021 827.652 253.838 827.652 252.423ZM846.09 283.823C846.09 277.394 847.582 272.238 850.565 268.354C853.548 264.446 857.547 262.491 862.562 262.491C866.985 262.491 870.559 264.034 873.285 267.12V245.75H882.659V305H874.172L873.709 300.68C870.906 304.074 867.165 305.771 862.484 305.771C857.598 305.771 853.638 303.804 850.604 299.87C847.595 295.935 846.09 290.586 846.09 283.823ZM855.464 284.633C855.464 288.876 856.274 292.193 857.894 294.585C859.54 296.951 861.867 298.134 864.876 298.134C868.708 298.134 871.511 296.424 873.285 293.003V275.182C871.562 271.839 868.785 270.167 864.953 270.167C861.919 270.167 859.578 271.376 857.933 273.793C856.287 276.185 855.464 279.798 855.464 284.633ZM910.818 305.771C904.877 305.771 900.056 303.907 896.353 300.178C892.675 296.424 890.836 291.435 890.836 285.211V284.054C890.836 279.888 891.634 276.172 893.228 272.906C894.848 269.615 897.111 267.056 900.017 265.23C902.923 263.404 906.163 262.491 909.738 262.491C915.421 262.491 919.806 264.304 922.892 267.93C926.003 271.556 927.559 276.687 927.559 283.321V287.102H900.287C900.57 290.548 901.714 293.273 903.72 295.279C905.752 297.285 908.298 298.288 911.358 298.288C915.653 298.288 919.15 296.552 921.85 293.081L926.903 297.902C925.232 300.397 922.994 302.338 920.191 303.727C917.414 305.09 914.29 305.771 910.818 305.771ZM909.699 270.013C907.128 270.013 905.045 270.913 903.45 272.713C901.882 274.514 900.879 277.021 900.441 280.235H918.301V279.541C918.096 276.404 917.26 274.038 915.794 272.443C914.328 270.823 912.297 270.013 909.699 270.013ZM966.288 253.118V263.263H973.655V270.206H966.288V293.505C966.288 295.099 966.596 296.257 967.213 296.977C967.856 297.671 968.988 298.018 970.608 298.018C971.688 298.018 972.781 297.889 973.887 297.632V304.884C971.752 305.476 969.695 305.771 967.715 305.771C960.514 305.771 956.914 301.798 956.914 293.852V270.206H950.048V263.263H956.914V253.118H966.288ZM977.937 283.746C977.937 279.657 978.747 275.979 980.367 272.713C981.987 269.422 984.263 266.902 987.195 265.153C990.126 263.378 993.495 262.491 997.301 262.491C1002.93 262.491 1007.5 264.304 1011 267.93C1014.52 271.556 1016.42 276.365 1016.7 282.357L1016.74 284.556C1016.74 288.67 1015.95 292.348 1014.35 295.588C1012.78 298.828 1010.52 301.335 1007.56 303.11C1004.63 304.884 1001.24 305.771 997.378 305.771C991.489 305.771 986.771 303.817 983.222 299.908C979.699 295.974 977.937 290.74 977.937 284.208V283.746ZM987.311 284.556C987.311 288.85 988.198 292.219 989.972 294.662C991.747 297.079 994.215 298.288 997.378 298.288C1000.54 298.288 1003 297.054 1004.75 294.585C1006.52 292.116 1007.41 288.503 1007.41 283.746C1007.41 279.528 1006.49 276.185 1004.67 273.716C1002.87 271.248 1000.41 270.013 997.301 270.013C994.241 270.013 991.811 271.235 990.011 273.678C988.211 276.095 987.311 279.721 987.311 284.556Z" fill="white"/>
<path d="M858.841 26.8143H874.543C879.872 26.8143 884.522 27.9165 888.5 30.1268C892.473 32.337 895.528 35.4097 897.659 39.339C899.791 43.274 900.857 47.7859 900.857 52.886C900.857 57.9861 899.791 62.498 897.659 66.433C895.528 70.368 892.473 73.435 888.5 75.6452C884.528 77.8555 879.877 78.9577 874.543 78.9577H858.841V26.8143V26.8143ZM874.543 73.0695C880.698 73.0695 885.577 71.299 889.19 67.7523C892.798 64.2056 894.604 59.254 894.604 52.8917C894.604 46.5294 892.798 41.5778 889.19 38.0311C885.582 34.4844 880.698 32.714 874.543 32.714H864.951V73.0637H874.543V73.0695Z" fill="white"/>
<path d="M910.369 78.5294C908.237 77.4614 906.59 75.9936 905.427 74.1203C904.265 72.2527 903.683 70.1282 903.683 67.7466C903.683 63.8116 905.16 60.7446 908.118 58.5344C911.07 56.3241 914.803 55.2219 919.311 55.2219C921.539 55.2219 923.608 55.4675 925.523 55.9529C927.438 56.4384 928.903 56.9981 929.923 57.6263V55.3704C929.923 52.6004 928.954 50.3788 927.016 48.7054C925.079 47.032 922.628 46.1924 919.676 46.1924C917.59 46.1924 915.681 46.6436 913.931 47.5403C912.187 48.4369 910.808 49.6877 909.787 51.2926L905.137 47.7973C906.59 45.5642 908.591 43.8166 911.132 42.5544C913.674 41.2922 916.501 40.6583 919.602 40.6583C924.64 40.6583 928.601 41.9833 931.485 44.6276C934.369 47.2776 935.811 50.8814 935.811 55.4446V78.9691H929.923V73.652H929.632C928.567 75.451 926.965 76.9759 924.834 78.2381C922.702 79.5003 920.303 80.1342 917.635 80.1342C914.928 80.1342 912.506 79.5974 910.369 78.5294ZM924.036 73.0694C925.825 72.0015 927.256 70.5679 928.322 68.7746C929.387 66.9813 929.923 65.0109 929.923 62.8749C928.76 62.0982 927.33 61.4642 925.637 60.9788C923.939 60.4933 922.149 60.2478 920.257 60.2478C916.866 60.2478 914.307 60.9502 912.592 62.3609C910.87 63.7716 910.01 65.5935 910.01 67.8208C910.01 69.8597 910.785 71.5103 912.335 72.7725C913.885 74.0346 915.846 74.6686 918.222 74.6686C920.303 74.6686 922.246 74.1374 924.036 73.0694Z" fill="white"/>
<path d="M942.331 42.4059H948.218V48.3056H948.509C949.381 46.1182 950.857 44.422 952.943 43.2055C955.023 41.9947 957.303 41.3836 959.776 41.3836C960.842 41.3836 961.737 41.4579 962.466 41.6006V47.9401C961.64 47.7459 960.529 47.6488 959.121 47.6488C955.969 47.6488 953.416 48.694 951.455 50.7786C949.495 52.8689 948.509 55.5874 948.509 58.9342V79.546H942.331V42.4059ZM980.699 79.3918C979.416 78.9006 978.339 78.2324 977.461 77.3872C976.492 76.4505 975.763 75.3597 975.278 74.1261C974.794 72.8924 974.549 71.3847 974.549 69.6028V47.4318H968.08V41.8234H974.549V31.3376H980.727V41.8234H989.738V47.4318H980.727V68.1293C980.727 70.2139 981.115 71.7502 981.89 72.7439C982.807 73.8348 984.141 74.3831 985.885 74.3831C987.287 74.3831 988.649 73.9718 989.954 73.1437V79.1919C989.225 79.5289 988.489 79.7745 987.737 79.9229C986.985 80.0714 986.027 80.14 984.865 80.14C983.377 80.1343 981.987 79.883 980.699 79.3918Z" fill="white"/>
<path d="M775.437 75.4377L762.169 62.142C760.596 60.52 759.616 58.2355 759.616 56.0024C759.616 54.9687 760.197 53.3524 760.636 52.4215L772.884 26.8524L775.437 75.4377Z" fill="#01579B"/>
<path d="M820.861 29.411L807.593 16.1153C806.436 14.9502 804.019 13.5566 801.979 13.5566C800.224 13.5566 798.502 13.9107 797.385 14.5789L772.89 26.8524L820.861 29.411Z" fill="#40C4FF"/>
<path d="M791.259 91.292H823.414V77.4823L799.426 69.8121L777.483 77.4823L791.259 91.292Z" fill="#40C4FF"/>
<path d="M772.89 68.2816C772.89 72.3822 773.403 73.3931 775.443 75.4435L777.483 77.4881H823.414L800.959 51.9189L772.89 26.8581V68.2816Z" fill="#29B6F6"/>
<path d="M813.714 26.8524H772.884L823.409 77.4823H837.19V45.7736L820.861 29.411C818.57 27.1036 816.529 26.8524 813.714 26.8524Z" fill="#01579B"/>
<path opacity="0.2" d="M775.95 75.9517C773.91 73.8957 773.397 71.8739 773.397 68.2816V27.3664L772.884 26.8524V68.2758C772.89 71.8739 772.89 72.8677 775.95 75.9517L777.483 77.488L775.95 75.9517Z" fill="white"/>
<path opacity="0.2" d="M836.682 45.2654V76.9741H822.901L823.414 77.4824H837.195V45.7794L836.682 45.2654Z" fill="#263238"/>
<path opacity="0.2" d="M820.861 29.411C818.33 26.8752 816.256 26.8524 813.207 26.8524H772.89L773.403 27.3664H813.212C814.728 27.3664 818.575 27.1094 820.861 29.411Z" fill="white"/>
<path opacity="0.2" d="M836.684 45.2653L820.863 29.411L807.594 16.1153C806.438 14.9502 804.021 13.5566 801.981 13.5566C800.225 13.5566 798.504 13.9107 797.387 14.5789L772.891 26.8524L760.643 52.4215C760.205 53.3524 759.623 54.9687 759.623 56.0024C759.623 58.2355 760.604 60.52 762.177 62.142L774.407 74.3069C774.698 74.6667 775.04 75.0322 775.45 75.4377L775.963 75.9517L777.496 77.4881L790.764 90.7838L791.277 91.2978H822.92H823.433V77.4881H837.214V77.4538V45.7794L836.684 45.2653Z" fill="url(#paint1_radial)"/>
<path d="M1151.72 79.2759H1145.6V31.6423H1173.42V37.4945H1151.72V53.1333H1171.29V58.8504H1151.72L1151.72 79.2759ZM1184.93 38.4976C1183.47 39.9634 1181.18 40.1937 1179.46 39.0476C1177.73 37.9014 1177.06 35.6982 1177.85 33.7861C1178.64 31.874 1180.67 30.7856 1182.7 31.187C1184.73 31.5885 1186.2 33.3679 1186.2 35.4363C1186.22 36.5883 1185.76 37.6969 1184.93 38.4976H1184.93ZM1184.93 79.2759H1178.81V46.6783H1184.93V79.2759ZM1198.37 79.2759H1192.25V46.6783H1198.1V52.0004H1198.37C1199.08 50.1249 1200.43 48.5662 1202.2 47.6086C1203.88 46.5293 1205.82 45.9307 1207.82 45.8779C1209.39 45.8333 1210.95 46.1055 1212.41 46.6783L1210.08 52.3953C1209.03 52.0458 1207.93 51.8875 1206.82 51.9276C1204.58 51.9389 1202.44 52.8933 1200.93 54.5574C1199.22 56.3106 1198.37 58.6062 1198.37 61.4439L1198.37 79.2759ZM1229.2 80.3154C1224.27 80.3154 1220.27 78.6747 1217.19 75.394C1214.1 72.1132 1212.56 67.9739 1212.56 62.9775C1212.47 58.4789 1214.07 54.1106 1217.05 50.7378C1219.9 47.3807 1224.13 45.4965 1228.53 45.6125C1233.37 45.6125 1237.24 47.1873 1240.15 50.3369C1243.06 53.4865 1244.51 57.6998 1244.5 62.9769L1244.44 64.1099H1218.67C1218.85 67.3911 1219.95 69.9899 1221.97 71.9059C1223.86 73.7602 1226.41 74.7884 1229.06 74.7645C1233.45 74.7645 1236.42 72.9014 1237.97 69.1773L1243.43 71.4382C1242.33 74.0156 1240.5 76.2204 1238.18 77.7893C1235.73 79.4733 1232.74 80.3154 1229.2 80.3154ZM1237.99 59.0063C1237.85 57.1422 1237 55.3682 1235.42 53.6841C1233.84 52.0001 1231.5 51.1756 1228.39 51.2102C1226.23 51.1724 1224.13 51.9311 1222.5 53.3412C1220.78 54.8414 1219.58 56.841 1219.07 59.0582L1237.99 59.0063ZM1266.64 80.3154C1264.32 80.3613 1262.03 79.8252 1259.97 78.7562C1258.16 77.8458 1256.64 76.4672 1255.54 74.7647H1255.28V79.276H1249.42V31.6423H1255.54V46.6783L1255.28 51.2H1255.54C1256.64 49.4974 1258.16 48.1188 1259.97 47.2084C1262.02 46.127 1264.31 45.5783 1266.64 45.6128C1270.85 45.6128 1274.49 47.276 1277.55 50.6023C1280.62 53.9286 1282.15 58.0536 1282.15 62.9772C1282.14 67.9007 1280.62 72.0257 1277.55 75.352C1274.49 78.6783 1270.85 80.3328 1266.64 80.3154ZM1265.64 74.7282C1268.43 74.7503 1271.09 73.5752 1272.96 71.5007C1275 69.349 1276.02 66.4991 1276.02 62.951C1276.02 59.4029 1275 56.5532 1272.96 54.4013C1271.07 52.3516 1268.41 51.1827 1265.63 51.1768C1262.84 51.1708 1260.18 52.3285 1258.28 54.37C1256.27 56.4975 1255.26 59.3577 1255.26 62.9509C1255.26 66.544 1256.28 69.4129 1258.32 71.5577C1260.19 73.6245 1262.87 74.7881 1265.66 74.7541L1265.64 74.7282ZM1297.74 80.3154C1294.27 80.3154 1291.38 79.3175 1289.06 77.3218C1286.73 75.3261 1285.57 72.6875 1285.56 69.4062C1285.56 65.8581 1286.94 63.0759 1289.69 61.0592C1292.44 59.0426 1295.84 58.0344 1299.87 58.0344C1303.47 58.0344 1306.41 58.6996 1308.71 60.0302V59.0999C1308.8 56.9088 1307.89 54.795 1306.25 53.3464C1304.57 51.9027 1302.41 51.1405 1300.2 51.2103C1298.51 51.1892 1296.84 51.625 1295.37 52.4733C1294 53.2331 1292.95 54.4621 1292.41 55.9347L1286.82 53.5387C1287.58 51.581 1289.06 49.7654 1291.29 48.0919C1293.51 46.4184 1296.44 45.5868 1300.08 45.5972C1304.24 45.5972 1307.7 46.8099 1310.48 49.2353C1313.25 51.6606 1314.62 55.0979 1314.6 59.5468V79.276H1308.73V74.7543H1308.46C1306.02 78.4617 1302.45 80.3084 1297.75 80.3084L1297.74 80.3154ZM1298.74 74.7282C1301.31 74.7192 1303.78 73.7154 1305.63 71.9268C1307.6 70.2653 1308.75 67.8209 1308.75 65.243C1307.02 63.8224 1304.42 63.112 1300.95 63.112C1297.98 63.112 1295.74 63.7547 1294.23 65.0402C1292.82 66.1215 1291.99 67.7879 1291.97 69.5619C1291.94 71.1057 1292.73 72.5499 1294.05 73.356C1295.43 74.2868 1297.07 74.7745 1298.74 74.7541L1298.74 74.7282ZM1332.61 80.3154C1328.97 80.3154 1325.97 79.4283 1323.6 77.6543C1321.29 75.9513 1319.49 73.6511 1318.4 71.0017L1323.86 68.7409C1325.59 72.8226 1328.54 74.8634 1332.7 74.8634C1334.35 74.931 1335.98 74.4902 1337.38 73.6004C1338.53 72.8872 1339.22 71.6262 1339.21 70.2741C1339.21 68.1467 1337.72 66.7053 1334.74 65.9499L1328.15 64.3543C1325.98 63.781 1323.96 62.7495 1322.23 61.3295C1320.38 59.8899 1319.34 57.6501 1319.43 55.311C1319.43 52.4284 1320.71 50.0893 1323.26 48.2944C1325.93 46.4633 1329.11 45.5211 1332.34 45.6022C1335.04 45.5591 1337.71 46.2392 1340.06 47.5721C1342.28 48.8312 1343.99 50.8176 1344.91 53.1956L1339.6 55.368C1338.4 52.4855 1335.91 51.0438 1332.14 51.0438C1330.53 50.9904 1328.94 51.3827 1327.55 52.1769C1326.4 52.7693 1325.69 53.9501 1325.69 55.2381C1325.69 57.1022 1327.13 58.3669 1330.01 59.0322L1336.46 60.5654C1339.53 61.2584 1341.79 62.4711 1343.26 64.2035C1344.68 65.8219 1345.46 67.903 1345.45 70.0557C1345.48 72.9259 1344.15 75.6401 1341.86 77.3736C1339.46 79.3347 1336.38 80.3153 1332.61 80.3153L1332.61 80.3154ZM1365.56 80.3154C1360.63 80.3154 1356.63 78.6747 1353.55 75.394C1350.47 72.1132 1348.92 67.9647 1348.92 62.9511C1348.83 58.4525 1350.43 54.0841 1353.41 50.7113C1356.28 47.3627 1360.5 45.4885 1364.91 45.6128C1369.76 45.6128 1373.63 47.1876 1376.52 50.3372C1379.42 53.4867 1380.87 57.7001 1380.88 62.9771L1380.81 64.1101H1355.03C1355.21 67.3913 1356.3 69.9901 1358.33 71.9061C1360.22 73.7604 1362.78 74.7851 1365.43 74.7542C1369.82 74.7542 1372.79 72.8911 1374.35 69.167L1379.8 71.4278C1378.7 74.0054 1376.87 76.2102 1374.55 77.779C1372.1 79.4698 1369.11 80.3154 1365.56 80.3154ZM1374.35 59.0063C1374.21 57.1422 1373.36 55.3682 1371.78 53.6841C1370.21 52.0001 1367.86 51.1756 1364.76 51.2102C1362.6 51.173 1360.5 51.9316 1358.87 53.3412C1357.15 54.8414 1355.96 56.841 1355.44 59.0582L1374.35 59.0063Z" fill="white"/>
<path d="M1054.02 82.9326L1065.28 10.3573C1065.42 9.46724 1066.11 8.76559 1066.99 8.61471C1067.87 8.46383 1068.75 8.8979 1069.17 9.69229L1080.82 31.5695L1085.46 22.6678C1085.82 21.9795 1086.53 21.5485 1087.3 21.5485C1088.08 21.5485 1088.79 21.9795 1089.15 22.6678L1120.58 82.9324H1054.02V82.9326Z" fill="#FFA000"/>
<path d="M1092.93 54.6617L1080.82 31.5591L1054.02 82.9326L1092.93 54.6617Z" fill="#F57C00"/>
<path d="M1120.58 82.9325L1111.95 29.1766C1111.82 28.4046 1111.28 27.7705 1110.53 27.5314C1109.79 27.2924 1108.98 27.4914 1108.43 28.0448L1054.02 82.9318L1084.13 99.9341C1086.02 100.997 1088.32 100.997 1090.21 99.9341L1120.58 82.9318V82.9325Z" fill="#FFCA28"/>
<path d="M1111.95 29.1766C1111.82 28.4046 1111.28 27.7705 1110.53 27.5314C1109.79 27.2924 1108.98 27.4913 1108.43 28.0448L1097.63 38.9475L1089.14 22.6674C1088.78 21.9791 1088.07 21.5481 1087.3 21.5481C1086.53 21.5481 1085.82 21.9791 1085.46 22.6674L1080.82 31.5691L1069.17 9.69225C1068.75 8.89766 1067.87 8.46429 1066.98 8.61629C1066.1 8.76829 1065.41 9.4717 1065.28 10.3625L1054.02 82.9325H1053.98L1054.02 82.9744L1054.32 83.121L1108.42 28.5796C1108.97 28.0231 1109.78 27.8231 1110.52 28.0614C1111.27 28.2998 1111.81 28.9364 1111.94 29.7106L1120.5 82.9848L1120.58 82.9324L1111.95 29.1764L1111.95 29.1766ZM1054.12 82.833L1065.28 10.8757C1065.42 9.98493 1066.11 9.28153 1066.99 9.12953C1067.87 8.97752 1068.75 9.41075 1069.17 10.2055L1080.82 32.0827L1085.46 23.181C1085.82 22.4927 1086.53 22.0617 1087.3 22.0617C1088.08 22.0617 1088.79 22.4927 1089.15 23.181L1097.47 39.115L1054.12 82.833H1054.12Z" fill="white" fill-opacity="0.2"/>
<path opacity="0.2" d="M1090.21 99.4217C1088.32 100.485 1086.02 100.485 1084.13 99.4217L1054.09 82.4667L1054.02 82.9328L1084.13 99.9299C1086.02 100.993 1088.32 100.993 1090.21 99.9299L1120.58 82.9328L1120.5 82.451L1090.21 99.4219V99.4217Z" fill="#A52714"/>
<path d="M1111.87 29.1877C1111.74 28.4159 1111.19 27.7816 1110.45 27.5439C1109.71 27.3063 1108.91 27.5039 1108.36 28.0572L1097.6 38.9544L1089.13 22.6818C1088.78 21.9938 1088.07 21.563 1087.3 21.563C1086.53 21.563 1085.82 21.9938 1085.47 22.6818L1080.84 31.5797L1069.23 9.71187C1068.81 8.91763 1067.93 8.48433 1067.05 8.6364C1066.18 8.78847 1065.49 9.49132 1065.36 10.3819L1054.14 82.9201L1084.14 99.9097C1086.02 100.972 1088.32 100.972 1090.2 99.9097L1120.46 82.9201L1111.87 29.1875V29.1877Z" fill="url(#paint2_linear)"/>
<path opacity="0.7" d="M637.734 71.0234L642.609 51.6406H646.945L639.562 77H636.047L629.883 57.7812L623.883 77H620.367L613.008 51.6406H617.32L622.312 70.625L628.219 51.6406H631.711L637.734 71.0234ZM656.086 77H651.75V51.6406H656.086V77ZM651.398 44.9141C651.398 44.2109 651.609 43.6172 652.031 43.1328C652.469 42.6484 653.109 42.4062 653.953 42.4062C654.797 42.4062 655.438 42.6484 655.875 43.1328C656.312 43.6172 656.531 44.2109 656.531 44.9141C656.531 45.6172 656.312 46.2031 655.875 46.6719C655.438 47.1406 654.797 47.375 653.953 47.375C653.109 47.375 652.469 47.1406 652.031 46.6719C651.609 46.2031 651.398 45.6172 651.398 44.9141ZM668.93 45.5V51.6406H673.664V54.9922H668.93V70.7188C668.93 71.7344 669.141 72.5 669.562 73.0156C669.984 73.5156 670.703 73.7656 671.719 73.7656C672.219 73.7656 672.906 73.6719 673.781 73.4844V77C672.641 77.3125 671.531 77.4688 670.453 77.4688C668.516 77.4688 667.055 76.8828 666.07 75.7109C665.086 74.5391 664.594 72.875 664.594 70.7188V54.9922H659.977V51.6406H664.594V45.5H668.93ZM683.086 54.7109C685.008 52.3516 687.508 51.1719 690.586 51.1719C695.945 51.1719 698.648 54.1953 698.695 60.2422V77H694.359V60.2188C694.344 58.3906 693.922 57.0391 693.094 56.1641C692.281 55.2891 691.008 54.8516 689.273 54.8516C687.867 54.8516 686.633 55.2266 685.57 55.9766C684.508 56.7266 683.68 57.7109 683.086 58.9297V77H678.75V41H683.086V54.7109Z" fill="white"/>
<path d="M1266.62 435.799H1257.99V442.854H1268.02V445H1255.37V425.094H1267.88V427.254H1257.99V433.652H1266.62V435.799ZM1275.85 435.607L1279.13 430.207H1282.08L1277.24 437.521L1282.24 445H1279.31L1275.89 439.463L1272.47 445H1269.53L1274.52 437.521L1269.68 430.207H1272.61L1275.85 435.607ZM1297.27 437.768C1297.27 440.019 1296.76 441.833 1295.73 443.209C1294.7 444.585 1293.3 445.273 1291.55 445.273C1289.75 445.273 1288.34 444.704 1287.31 443.564V450.688H1284.78V430.207H1287.09L1287.21 431.848C1288.24 430.572 1289.67 429.934 1291.5 429.934C1293.28 429.934 1294.69 430.604 1295.72 431.943C1296.75 433.283 1297.27 435.147 1297.27 437.535V437.768ZM1294.74 437.48C1294.74 435.812 1294.39 434.495 1293.68 433.529C1292.97 432.563 1291.99 432.08 1290.75 432.08C1289.22 432.08 1288.07 432.759 1287.31 434.117V441.186C1288.06 442.535 1289.22 443.209 1290.78 443.209C1291.99 443.209 1292.95 442.73 1293.66 441.773C1294.38 440.807 1294.74 439.376 1294.74 437.48ZM1303.25 445H1300.72V424H1303.25V445ZM1316.44 445C1316.3 444.708 1316.18 444.189 1316.09 443.441C1314.91 444.663 1313.51 445.273 1311.88 445.273C1310.42 445.273 1309.22 444.863 1308.28 444.043C1307.35 443.214 1306.89 442.165 1306.89 440.898C1306.89 439.358 1307.47 438.164 1308.64 437.316C1309.81 436.46 1311.46 436.031 1313.58 436.031H1316.05V434.869C1316.05 433.985 1315.78 433.283 1315.25 432.764C1314.72 432.235 1313.94 431.971 1312.91 431.971C1312.01 431.971 1311.26 432.199 1310.65 432.654C1310.03 433.11 1309.73 433.661 1309.73 434.309H1307.19C1307.19 433.57 1307.45 432.859 1307.97 432.176C1308.49 431.483 1309.21 430.936 1310.1 430.535C1311 430.134 1311.99 429.934 1313.07 429.934C1314.77 429.934 1316.11 430.362 1317.07 431.219C1318.04 432.066 1318.54 433.238 1318.58 434.732V441.541C1318.58 442.899 1318.75 443.979 1319.09 444.781V445H1316.44ZM1312.24 443.072C1313.04 443.072 1313.79 442.867 1314.5 442.457C1315.21 442.047 1315.73 441.514 1316.05 440.857V437.822H1314.06C1310.96 437.822 1309.41 438.729 1309.41 440.543C1309.41 441.336 1309.68 441.956 1310.21 442.402C1310.74 442.849 1311.42 443.072 1312.24 443.072ZM1324.93 430.207L1325.01 432.066C1326.14 430.645 1327.62 429.934 1329.44 429.934C1332.57 429.934 1334.15 431.697 1334.17 435.225V445H1331.65V435.211C1331.64 434.145 1331.39 433.356 1330.91 432.846C1330.43 432.335 1329.69 432.08 1328.68 432.08C1327.86 432.08 1327.14 432.299 1326.52 432.736C1325.9 433.174 1325.42 433.748 1325.07 434.459V445H1322.54V430.207H1324.93ZM1347.12 445C1346.98 444.708 1346.86 444.189 1346.77 443.441C1345.59 444.663 1344.19 445.273 1342.56 445.273C1341.1 445.273 1339.9 444.863 1338.96 444.043C1338.03 443.214 1337.57 442.165 1337.57 440.898C1337.57 439.358 1338.15 438.164 1339.32 437.316C1340.49 436.46 1342.14 436.031 1344.26 436.031H1346.73V434.869C1346.73 433.985 1346.46 433.283 1345.93 432.764C1345.4 432.235 1344.62 431.971 1343.59 431.971C1342.69 431.971 1341.94 432.199 1341.33 432.654C1340.71 433.11 1340.41 433.661 1340.41 434.309H1337.87C1337.87 433.57 1338.13 432.859 1338.65 432.176C1339.17 431.483 1339.88 430.936 1340.78 430.535C1341.68 430.134 1342.67 429.934 1343.74 429.934C1345.45 429.934 1346.78 430.362 1347.75 431.219C1348.72 432.066 1349.22 433.238 1349.25 434.732V441.541C1349.25 442.899 1349.43 443.979 1349.77 444.781V445H1347.12ZM1342.92 443.072C1343.72 443.072 1344.47 442.867 1345.18 442.457C1345.89 442.047 1346.41 441.514 1346.73 440.857V437.822H1344.74C1341.64 437.822 1340.09 438.729 1340.09 440.543C1340.09 441.336 1340.36 441.956 1340.89 442.402C1341.42 442.849 1342.1 443.072 1342.92 443.072ZM1356.65 426.625V430.207H1359.41V432.162H1356.65V441.336C1356.65 441.928 1356.77 442.375 1357.02 442.676C1357.27 442.967 1357.69 443.113 1358.28 443.113C1358.57 443.113 1358.97 443.059 1359.48 442.949V445C1358.82 445.182 1358.17 445.273 1357.54 445.273C1356.41 445.273 1355.56 444.932 1354.98 444.248C1354.41 443.564 1354.12 442.594 1354.12 441.336V432.162H1351.43V430.207H1354.12V426.625H1356.65ZM1365.13 445H1362.6V430.207H1365.13V445ZM1362.39 426.283C1362.39 425.873 1362.52 425.527 1362.76 425.244C1363.02 424.962 1363.39 424.82 1363.88 424.82C1364.38 424.82 1364.75 424.962 1365 425.244C1365.26 425.527 1365.39 425.873 1365.39 426.283C1365.39 426.693 1365.26 427.035 1365 427.309C1364.75 427.582 1364.38 427.719 1363.88 427.719C1363.39 427.719 1363.02 427.582 1362.76 427.309C1362.52 427.035 1362.39 426.693 1362.39 426.283ZM1368.52 437.467C1368.52 436.018 1368.8 434.714 1369.37 433.557C1369.94 432.399 1370.73 431.506 1371.74 430.877C1372.77 430.248 1373.93 429.934 1375.23 429.934C1377.25 429.934 1378.87 430.631 1380.11 432.025C1381.36 433.42 1381.99 435.275 1381.99 437.59V437.768C1381.99 439.208 1381.71 440.502 1381.15 441.65C1380.6 442.79 1379.82 443.678 1378.79 444.316C1377.77 444.954 1376.59 445.273 1375.26 445.273C1373.25 445.273 1371.63 444.576 1370.38 443.182C1369.14 441.787 1368.52 439.941 1368.52 437.645V437.467ZM1371.06 437.768C1371.06 439.408 1371.44 440.725 1372.2 441.719C1372.96 442.712 1373.98 443.209 1375.26 443.209C1376.54 443.209 1377.56 442.708 1378.32 441.705C1379.08 440.693 1379.46 439.281 1379.46 437.467C1379.46 435.844 1379.07 434.532 1378.29 433.529C1377.53 432.518 1376.51 432.012 1375.23 432.012C1373.98 432.012 1372.98 432.508 1372.21 433.502C1371.44 434.495 1371.06 435.917 1371.06 437.768ZM1387.55 430.207L1387.63 432.066C1388.76 430.645 1390.24 429.934 1392.06 429.934C1395.19 429.934 1396.76 431.697 1396.79 435.225V445H1394.26V435.211C1394.25 434.145 1394.01 433.356 1393.52 432.846C1393.05 432.335 1392.31 432.08 1391.3 432.08C1390.48 432.08 1389.76 432.299 1389.14 432.736C1388.52 433.174 1388.03 433.748 1387.69 434.459V445H1385.16V430.207H1387.55ZM1409.22 441.076C1409.22 440.393 1408.96 439.864 1408.44 439.49C1407.93 439.107 1407.03 438.779 1405.75 438.506C1404.47 438.232 1403.45 437.904 1402.7 437.521C1401.95 437.139 1401.39 436.683 1401.03 436.154C1400.67 435.626 1400.5 434.997 1400.5 434.268C1400.5 433.055 1401.01 432.03 1402.03 431.191C1403.06 430.353 1404.37 429.934 1405.97 429.934C1407.64 429.934 1409 430.367 1410.04 431.232C1411.09 432.098 1411.61 433.206 1411.61 434.555H1409.07C1409.07 433.862 1408.77 433.265 1408.18 432.764C1407.6 432.262 1406.86 432.012 1405.97 432.012C1405.05 432.012 1404.33 432.212 1403.81 432.613C1403.29 433.014 1403.03 433.538 1403.03 434.186C1403.03 434.796 1403.27 435.257 1403.75 435.566C1404.23 435.876 1405.1 436.173 1406.36 436.455C1407.63 436.738 1408.65 437.075 1409.44 437.467C1410.22 437.859 1410.8 438.333 1411.17 438.889C1411.56 439.436 1411.75 440.105 1411.75 440.898C1411.75 442.22 1411.22 443.282 1410.16 444.084C1409.11 444.877 1407.73 445.273 1406.05 445.273C1404.86 445.273 1403.81 445.064 1402.9 444.645C1401.99 444.225 1401.28 443.642 1400.76 442.895C1400.25 442.138 1399.99 441.322 1399.99 440.447H1402.52C1402.57 441.295 1402.9 441.969 1403.53 442.471C1404.17 442.963 1405.01 443.209 1406.05 443.209C1407 443.209 1407.77 443.018 1408.34 442.635C1408.93 442.243 1409.22 441.723 1409.22 441.076ZM1414.96 448.965L1413.53 447.98C1414.38 446.786 1414.83 445.556 1414.87 444.289V442.006H1417.34V443.988C1417.34 444.909 1417.11 445.829 1416.66 446.75C1416.21 447.671 1415.65 448.409 1414.96 448.965ZM1262.67 475.947H1257.99V484H1255.36V464.094H1261.95C1264.19 464.094 1265.91 464.604 1267.11 465.625C1268.33 466.646 1268.93 468.132 1268.93 470.082C1268.93 471.322 1268.6 472.402 1267.92 473.322C1267.26 474.243 1266.33 474.931 1265.13 475.387L1269.81 483.836V484H1266.99L1262.67 475.947ZM1257.99 473.801H1262.03C1263.33 473.801 1264.37 473.464 1265.13 472.789C1265.91 472.115 1266.29 471.212 1266.29 470.082C1266.29 468.852 1265.92 467.908 1265.19 467.252C1264.46 466.596 1263.4 466.263 1262.01 466.254H1257.99V473.801ZM1278.37 484.273C1276.36 484.273 1274.73 483.617 1273.47 482.305C1272.21 480.983 1271.58 479.219 1271.58 477.014V476.549C1271.58 475.081 1271.86 473.773 1272.42 472.625C1272.98 471.467 1273.77 470.565 1274.77 469.918C1275.78 469.262 1276.88 468.934 1278.05 468.934C1279.97 468.934 1281.47 469.567 1282.54 470.834C1283.6 472.101 1284.14 473.915 1284.14 476.275V477.328H1274.11C1274.15 478.786 1274.57 479.967 1275.39 480.869C1276.21 481.762 1277.24 482.209 1278.5 482.209C1279.4 482.209 1280.15 482.027 1280.77 481.662C1281.39 481.298 1281.93 480.814 1282.4 480.213L1283.94 481.416C1282.7 483.321 1280.85 484.273 1278.37 484.273ZM1278.05 471.012C1277.03 471.012 1276.17 471.385 1275.48 472.133C1274.79 472.871 1274.36 473.91 1274.2 475.25H1281.61V475.059C1281.53 473.773 1281.19 472.78 1280.57 472.078C1279.95 471.367 1279.11 471.012 1278.05 471.012ZM1295.69 480.076C1295.69 479.393 1295.43 478.864 1294.91 478.49C1294.4 478.107 1293.5 477.779 1292.22 477.506C1290.94 477.232 1289.92 476.904 1289.17 476.521C1288.42 476.139 1287.86 475.683 1287.5 475.154C1287.14 474.626 1286.97 473.997 1286.97 473.268C1286.97 472.055 1287.48 471.03 1288.5 470.191C1289.53 469.353 1290.84 468.934 1292.43 468.934C1294.11 468.934 1295.47 469.367 1296.51 470.232C1297.56 471.098 1298.08 472.206 1298.08 473.555H1295.54C1295.54 472.862 1295.24 472.265 1294.65 471.764C1294.07 471.262 1293.33 471.012 1292.43 471.012C1291.51 471.012 1290.79 471.212 1290.27 471.613C1289.75 472.014 1289.49 472.538 1289.49 473.186C1289.49 473.796 1289.74 474.257 1290.22 474.566C1290.7 474.876 1291.57 475.173 1292.83 475.455C1294.1 475.738 1295.12 476.075 1295.91 476.467C1296.69 476.859 1297.27 477.333 1297.64 477.889C1298.03 478.436 1298.22 479.105 1298.22 479.898C1298.22 481.22 1297.69 482.282 1296.63 483.084C1295.57 483.877 1294.2 484.273 1292.52 484.273C1291.33 484.273 1290.28 484.064 1289.37 483.645C1288.46 483.225 1287.74 482.642 1287.23 481.895C1286.72 481.138 1286.46 480.322 1286.46 479.447H1288.99C1289.03 480.295 1289.37 480.969 1290 481.471C1290.64 481.963 1291.48 482.209 1292.52 482.209C1293.47 482.209 1294.24 482.018 1294.81 481.635C1295.4 481.243 1295.69 480.723 1295.69 480.076ZM1300.84 476.467C1300.84 475.018 1301.13 473.714 1301.69 472.557C1302.26 471.399 1303.06 470.506 1304.07 469.877C1305.09 469.248 1306.25 468.934 1307.56 468.934C1309.57 468.934 1311.2 469.631 1312.44 471.025C1313.69 472.42 1314.31 474.275 1314.31 476.59V476.768C1314.31 478.208 1314.03 479.502 1313.48 480.65C1312.93 481.79 1312.14 482.678 1311.11 483.316C1310.09 483.954 1308.91 484.273 1307.58 484.273C1305.58 484.273 1303.95 483.576 1302.7 482.182C1301.46 480.787 1300.84 478.941 1300.84 476.645V476.467ZM1303.39 476.768C1303.39 478.408 1303.76 479.725 1304.52 480.719C1305.29 481.712 1306.31 482.209 1307.58 482.209C1308.87 482.209 1309.89 481.708 1310.65 480.705C1311.4 479.693 1311.78 478.281 1311.78 476.467C1311.78 474.844 1311.39 473.532 1310.62 472.529C1309.85 471.518 1308.83 471.012 1307.56 471.012C1306.31 471.012 1305.3 471.508 1304.53 472.502C1303.77 473.495 1303.39 474.917 1303.39 476.768ZM1326.61 482.537C1325.63 483.695 1324.19 484.273 1322.28 484.273C1320.7 484.273 1319.5 483.818 1318.67 482.906C1317.85 481.986 1317.44 480.628 1317.43 478.832V469.207H1319.96V478.764C1319.96 481.006 1320.87 482.127 1322.69 482.127C1324.62 482.127 1325.91 481.407 1326.55 479.967V469.207H1329.08V484H1326.67L1326.61 482.537ZM1340.08 471.477C1339.7 471.413 1339.28 471.381 1338.84 471.381C1337.18 471.381 1336.05 472.087 1335.46 473.5V484H1332.93V469.207H1335.39L1335.43 470.916C1336.26 469.594 1337.44 468.934 1338.96 468.934C1339.45 468.934 1339.83 468.997 1340.08 469.125V471.477ZM1348.08 482.209C1348.98 482.209 1349.77 481.936 1350.44 481.389C1351.12 480.842 1351.49 480.158 1351.57 479.338H1353.96C1353.91 480.186 1353.62 480.992 1353.08 481.758C1352.55 482.523 1351.83 483.134 1350.92 483.59C1350.03 484.046 1349.08 484.273 1348.08 484.273C1346.06 484.273 1344.46 483.604 1343.27 482.264C1342.08 480.915 1341.49 479.074 1341.49 476.74V476.316C1341.49 474.876 1341.75 473.596 1342.28 472.475C1342.81 471.354 1343.57 470.483 1344.55 469.863C1345.55 469.243 1346.72 468.934 1348.07 468.934C1349.72 468.934 1351.1 469.43 1352.19 470.424C1353.3 471.417 1353.88 472.707 1353.96 474.293H1351.57C1351.49 473.336 1351.13 472.552 1350.47 471.941C1349.82 471.322 1349.02 471.012 1348.07 471.012C1346.78 471.012 1345.78 471.477 1345.07 472.406C1344.37 473.327 1344.02 474.662 1344.02 476.412V476.891C1344.02 478.595 1344.37 479.908 1345.07 480.828C1345.77 481.749 1346.78 482.209 1348.08 482.209ZM1362.94 484.273C1360.94 484.273 1359.3 483.617 1358.05 482.305C1356.79 480.983 1356.16 479.219 1356.16 477.014V476.549C1356.16 475.081 1356.44 473.773 1356.99 472.625C1357.56 471.467 1358.34 470.565 1359.34 469.918C1360.36 469.262 1361.45 468.934 1362.63 468.934C1364.55 468.934 1366.04 469.567 1367.11 470.834C1368.18 472.101 1368.71 473.915 1368.71 476.275V477.328H1358.69C1358.72 478.786 1359.15 479.967 1359.96 480.869C1360.78 481.762 1361.82 482.209 1363.08 482.209C1363.97 482.209 1364.73 482.027 1365.35 481.662C1365.97 481.298 1366.51 480.814 1366.97 480.213L1368.52 481.416C1367.28 483.321 1365.42 484.273 1362.94 484.273ZM1362.63 471.012C1361.61 471.012 1360.75 471.385 1360.06 472.133C1359.36 472.871 1358.93 473.91 1358.77 475.25H1366.18V475.059C1366.11 473.773 1365.76 472.78 1365.14 472.078C1364.52 471.367 1363.68 471.012 1362.63 471.012ZM1380.26 480.076C1380.26 479.393 1380 478.864 1379.48 478.49C1378.97 478.107 1378.08 477.779 1376.79 477.506C1375.51 477.232 1374.5 476.904 1373.74 476.521C1372.99 476.139 1372.44 475.683 1372.07 475.154C1371.72 474.626 1371.54 473.997 1371.54 473.268C1371.54 472.055 1372.05 471.03 1373.07 470.191C1374.1 469.353 1375.41 468.934 1377.01 468.934C1378.69 468.934 1380.04 469.367 1381.08 470.232C1382.13 471.098 1382.66 472.206 1382.66 473.555H1380.11C1380.11 472.862 1379.82 472.265 1379.22 471.764C1378.64 471.262 1377.9 471.012 1377.01 471.012C1376.09 471.012 1375.37 471.212 1374.85 471.613C1374.33 472.014 1374.07 472.538 1374.07 473.186C1374.07 473.796 1374.31 474.257 1374.79 474.566C1375.28 474.876 1376.15 475.173 1377.41 475.455C1378.67 475.738 1379.7 476.075 1380.48 476.467C1381.27 476.859 1381.84 477.333 1382.22 477.889C1382.6 478.436 1382.79 479.105 1382.79 479.898C1382.79 481.22 1382.26 482.282 1381.21 483.084C1380.15 483.877 1378.78 484.273 1377.09 484.273C1375.91 484.273 1374.86 484.064 1373.95 483.645C1373.03 483.225 1372.32 482.642 1371.8 481.895C1371.29 481.138 1371.03 480.322 1371.03 479.447H1373.56C1373.61 480.295 1373.95 480.969 1374.58 481.471C1375.21 481.963 1376.05 482.209 1377.09 482.209C1378.05 482.209 1378.81 482.018 1379.39 481.635C1379.97 481.243 1380.26 480.723 1380.26 480.076ZM1386 487.965L1384.57 486.98C1385.43 485.786 1385.87 484.556 1385.91 483.289V481.006H1388.38V482.988C1388.38 483.909 1388.16 484.829 1387.7 485.75C1387.25 486.671 1386.69 487.409 1386 487.965ZM1264.11 523C1263.96 522.708 1263.84 522.189 1263.75 521.441C1262.58 522.663 1261.17 523.273 1259.54 523.273C1258.08 523.273 1256.88 522.863 1255.94 522.043C1255.01 521.214 1254.55 520.165 1254.55 518.898C1254.55 517.358 1255.13 516.164 1256.3 515.316C1257.48 514.46 1259.13 514.031 1261.25 514.031H1263.71V512.869C1263.71 511.985 1263.45 511.283 1262.92 510.764C1262.39 510.235 1261.61 509.971 1260.58 509.971C1259.68 509.971 1258.92 510.199 1258.31 510.654C1257.7 511.11 1257.39 511.661 1257.39 512.309H1254.85C1254.85 511.57 1255.11 510.859 1255.63 510.176C1256.16 509.483 1256.87 508.936 1257.76 508.535C1258.66 508.134 1259.65 507.934 1260.73 507.934C1262.43 507.934 1263.77 508.362 1264.74 509.219C1265.7 510.066 1266.2 511.238 1266.24 512.732V519.541C1266.24 520.899 1266.41 521.979 1266.76 522.781V523H1264.11ZM1259.91 521.072C1260.7 521.072 1261.45 520.867 1262.16 520.457C1262.88 520.047 1263.39 519.514 1263.71 518.857V515.822H1261.73C1258.63 515.822 1257.08 516.729 1257.08 518.543C1257.08 519.336 1257.34 519.956 1257.87 520.402C1258.4 520.849 1259.08 521.072 1259.91 521.072ZM1272.6 508.207L1272.68 510.066C1273.81 508.645 1275.29 507.934 1277.11 507.934C1280.23 507.934 1281.81 509.697 1281.84 513.225V523H1279.31V513.211C1279.3 512.145 1279.05 511.356 1278.57 510.846C1278.1 510.335 1277.35 510.08 1276.34 510.08C1275.52 510.08 1274.8 510.299 1274.18 510.736C1273.56 511.174 1273.08 511.748 1272.73 512.459V523H1270.2V508.207H1272.6ZM1285.04 515.48C1285.04 513.211 1285.58 511.388 1286.65 510.012C1287.73 508.626 1289.13 507.934 1290.88 507.934C1292.61 507.934 1293.98 508.526 1294.99 509.711V502H1297.52V523H1295.2L1295.07 521.414C1294.06 522.654 1292.65 523.273 1290.85 523.273C1289.13 523.273 1287.74 522.572 1286.65 521.168C1285.58 519.764 1285.04 517.932 1285.04 515.672V515.48ZM1287.57 515.768C1287.57 517.445 1287.91 518.757 1288.61 519.705C1289.3 520.653 1290.26 521.127 1291.48 521.127C1293.08 521.127 1294.25 520.407 1294.99 518.967V512.172C1294.23 510.777 1293.07 510.08 1291.5 510.08C1290.27 510.08 1289.3 510.559 1288.61 511.516C1287.91 512.473 1287.57 513.89 1287.57 515.768ZM1322.01 505.254H1315.61V523H1313V505.254H1306.61V503.094H1322.01V505.254ZM1327.31 523H1324.78V508.207H1327.31V523ZM1324.58 504.283C1324.58 503.873 1324.7 503.527 1324.95 503.244C1325.2 502.962 1325.58 502.82 1326.07 502.82C1326.56 502.82 1326.93 502.962 1327.19 503.244C1327.44 503.527 1327.57 503.873 1327.57 504.283C1327.57 504.693 1327.44 505.035 1327.19 505.309C1326.93 505.582 1326.56 505.719 1326.07 505.719C1325.58 505.719 1325.2 505.582 1324.95 505.309C1324.7 505.035 1324.58 504.693 1324.58 504.283ZM1343.87 515.768C1343.87 518.019 1343.35 519.833 1342.32 521.209C1341.29 522.585 1339.9 523.273 1338.14 523.273C1336.34 523.273 1334.93 522.704 1333.9 521.564V528.688H1331.37V508.207H1333.68L1333.81 509.848C1334.84 508.572 1336.27 507.934 1338.1 507.934C1339.88 507.934 1341.28 508.604 1342.31 509.943C1343.35 511.283 1343.87 513.147 1343.87 515.535V515.768ZM1341.34 515.48C1341.34 513.812 1340.98 512.495 1340.27 511.529C1339.56 510.563 1338.59 510.08 1337.35 510.08C1335.82 510.08 1334.67 510.759 1333.9 512.117V519.186C1334.66 520.535 1335.82 521.209 1337.37 521.209C1338.59 521.209 1339.55 520.73 1340.26 519.773C1340.98 518.807 1341.34 517.376 1341.34 515.48ZM1355.71 519.076C1355.71 518.393 1355.45 517.864 1354.93 517.49C1354.42 517.107 1353.52 516.779 1352.24 516.506C1350.96 516.232 1349.94 515.904 1349.19 515.521C1348.44 515.139 1347.88 514.683 1347.52 514.154C1347.16 513.626 1346.99 512.997 1346.99 512.268C1346.99 511.055 1347.5 510.03 1348.52 509.191C1349.55 508.353 1350.86 507.934 1352.45 507.934C1354.13 507.934 1355.49 508.367 1356.53 509.232C1357.58 510.098 1358.1 511.206 1358.1 512.555H1355.56C1355.56 511.862 1355.26 511.265 1354.67 510.764C1354.09 510.262 1353.35 510.012 1352.45 510.012C1351.53 510.012 1350.81 510.212 1350.29 510.613C1349.77 511.014 1349.51 511.538 1349.51 512.186C1349.51 512.796 1349.76 513.257 1350.24 513.566C1350.72 513.876 1351.59 514.173 1352.85 514.455C1354.12 514.738 1355.14 515.075 1355.93 515.467C1356.71 515.859 1357.29 516.333 1357.66 516.889C1358.05 517.436 1358.24 518.105 1358.24 518.898C1358.24 520.22 1357.71 521.282 1356.65 522.084C1355.59 522.877 1354.22 523.273 1352.54 523.273C1351.35 523.273 1350.3 523.064 1349.39 522.645C1348.48 522.225 1347.76 521.642 1347.24 520.895C1346.73 520.138 1346.48 519.322 1346.48 518.447H1349.01C1349.05 519.295 1349.39 519.969 1350.02 520.471C1350.66 520.963 1351.5 521.209 1352.54 521.209C1353.49 521.209 1354.26 521.018 1354.83 520.635C1355.42 520.243 1355.71 519.723 1355.71 519.076Z" fill="white"/>
<path d="M1193.73 448.269C1192.6 448.269 1191.69 449.182 1191.69 450.309C1191.69 451.435 1192.6 452.348 1193.73 452.348C1200.46 452.348 1205.94 457.836 1205.94 464.582C1205.94 465.709 1206.85 466.622 1207.97 466.622C1209.1 466.622 1210.01 465.709 1210.01 464.582C1210.01 455.587 1202.7 448.269 1193.73 448.269Z" fill="#FFCA28"/>
<path d="M1188.48 440.662C1179.29 442.587 1171.84 449.986 1169.87 459.256C1168.22 467.083 1170.26 474.942 1175.47 480.817C1178.02 483.688 1179.48 487.479 1179.48 491.227V495.305C1179.48 498.019 1181.26 500.324 1183.7 501.122C1184.51 505.884 1188.63 509.715 1193.73 509.715C1198.83 509.715 1202.95 505.885 1203.75 501.122C1206.2 500.324 1207.97 498.019 1207.97 495.305V491.227C1207.97 487.471 1209.44 483.727 1212.1 480.682C1216 476.226 1218.15 470.508 1218.15 464.582C1218.15 449.144 1204.05 437.404 1188.48 440.662ZM1193.73 505.637C1191.11 505.637 1188.82 503.833 1187.97 501.409H1199.48C1198.64 503.833 1196.34 505.637 1193.73 505.637ZM1203.9 495.305C1203.9 496.43 1202.99 497.344 1201.87 497.344H1185.59C1184.47 497.344 1183.55 496.43 1183.55 495.305V493.266H1203.9V495.305ZM1209.04 477.994C1206.2 481.239 1204.46 485.151 1204.01 489.188H1183.44C1183 485.149 1181.26 481.198 1178.51 478.106C1174.17 473.21 1172.47 466.648 1173.86 460.102C1175.47 452.46 1181.69 446.252 1189.32 444.654C1202.34 441.926 1214.08 451.729 1214.08 464.582C1214.08 469.519 1212.29 474.282 1209.04 477.994Z" fill="#FFCA28"/>
<path d="M1165.1 464.582H1161.03C1159.91 464.582 1159 465.495 1159 466.622C1159 467.748 1159.91 468.661 1161.03 468.661H1165.1C1166.23 468.661 1167.14 467.748 1167.14 466.622C1167.14 465.495 1166.23 464.582 1165.1 464.582Z" fill="#FFCA28"/>
<path d="M1165.95 454.387L1163.07 451.503C1162.28 450.707 1160.99 450.707 1160.19 451.503C1159.4 452.299 1159.4 453.59 1160.19 454.387L1163.07 457.27C1163.86 458.067 1165.15 458.067 1165.95 457.27C1166.74 456.474 1166.74 455.183 1165.95 454.387Z" fill="#FFCA28"/>
<path d="M1165.95 475.973C1165.15 475.176 1163.86 475.176 1163.07 475.973L1160.19 478.856C1159.4 479.653 1159.4 480.944 1160.19 481.74C1160.99 482.536 1162.27 482.536 1163.07 481.74L1165.95 478.856C1166.74 478.06 1166.74 476.769 1165.95 475.973Z" fill="#FFCA28"/>
<path d="M1226.42 464.582H1222.35C1221.23 464.582 1220.32 465.495 1220.32 466.622C1220.32 467.748 1221.23 468.661 1222.35 468.661H1226.42C1227.55 468.661 1228.46 467.748 1228.46 466.622C1228.46 465.495 1227.55 464.582 1226.42 464.582Z" fill="#FFCA28"/>
<path d="M1227.27 451.503C1226.47 450.707 1225.18 450.707 1224.39 451.503L1221.51 454.387C1220.72 455.183 1220.72 456.474 1221.51 457.27C1222.3 458.067 1223.59 458.067 1224.39 457.27L1227.27 454.387C1228.06 453.59 1228.06 452.299 1227.27 451.503Z" fill="#FFCA28"/>
<path d="M1227.27 478.856L1224.39 475.973C1223.59 475.176 1222.3 475.176 1221.51 475.973C1220.72 476.769 1220.72 478.06 1221.51 478.856L1224.39 481.74C1225.18 482.536 1226.47 482.536 1227.27 481.74C1228.06 480.944 1228.06 479.653 1227.27 478.856Z" fill="#FFCA28"/>
<path d="M506.989 493.118H443.468V560H416.043V402.172H516.312V424.285H443.468V471.222H506.989V493.118ZM563.573 560H537.232V393.5H563.573V560ZM663.408 548.51C655.676 557.615 644.691 562.168 630.455 562.168C617.736 562.168 608.089 558.446 601.513 551.003C595.009 543.56 591.757 532.792 591.757 518.7V442.713H618.098V518.375C618.098 533.262 624.276 540.705 636.634 540.705C649.425 540.705 658.061 536.116 662.541 526.938V442.713H688.882V560H664.059L663.408 548.51ZM748.718 414.204V442.713H769.422V462.225H748.718V527.697C748.718 532.178 749.585 535.43 751.319 537.453C753.126 539.404 756.306 540.38 760.858 540.38C763.894 540.38 766.965 540.019 770.072 539.296V559.675C764.074 561.337 758.293 562.168 752.729 562.168C732.494 562.168 722.377 551.003 722.377 528.673V462.225H703.082V442.713H722.377V414.204H748.718ZM822.646 414.204V442.713H843.35V462.225H822.646V527.697C822.646 532.178 823.513 535.43 825.247 537.453C827.054 539.404 830.233 540.38 834.786 540.38C837.821 540.38 840.893 540.019 844 539.296V559.675C838.002 561.337 832.221 562.168 826.656 562.168C806.422 562.168 796.305 551.003 796.305 528.673V462.225H777.01V442.713H796.305V414.204H822.646ZM915.218 562.168C898.524 562.168 884.975 556.929 874.568 546.45C864.234 535.899 859.067 521.88 859.067 504.392V501.14C859.067 489.433 861.308 478.99 865.788 469.812C870.341 460.562 876.7 453.372 884.866 448.241C893.032 443.11 902.138 440.545 912.183 440.545C928.153 440.545 940.475 445.64 949.146 455.829C957.891 466.019 962.263 480.436 962.263 499.08V509.703H885.625C886.42 519.387 889.636 527.047 895.272 532.684C900.981 538.32 908.136 541.139 916.735 541.139C928.804 541.139 938.632 536.261 946.22 526.505L960.42 540.055C955.723 547.064 949.436 552.521 941.559 556.423C933.754 560.253 924.974 562.168 915.218 562.168ZM912.074 461.683C904.848 461.683 898.994 464.212 894.514 469.271C890.105 474.329 887.287 481.375 886.059 490.408H936.247V488.457C935.669 479.641 933.32 472.992 929.201 468.512C925.082 463.959 919.373 461.683 912.074 461.683ZM1044.21 466.777C1040.74 466.199 1037.17 465.91 1033.48 465.91C1021.41 465.91 1013.28 470.535 1009.09 479.785V560H982.75V442.713H1007.9L1008.55 455.829C1014.91 445.64 1023.72 440.545 1035 440.545C1038.76 440.545 1041.86 441.051 1044.32 442.062L1044.21 466.777Z" fill="white"/>
</g>
<defs>
<linearGradient id="paint0_linear" x1="724" y1="0" x2="724" y2="746" gradientUnits="userSpaceOnUse">
<stop stop-color="#0981E2"/>
<stop offset="1" stop-color="#0981E1"/>
</linearGradient>
<radialGradient id="paint1_radial" cx="0" cy="0" r="1" gradientUnits="userSpaceOnUse" gradientTransform="translate(798.416 52.4252) scale(38.7924 38.8734)">
<stop stop-color="white" stop-opacity="0.1"/>
<stop offset="1" stop-color="white" stop-opacity="0"/>
</radialGradient>
<linearGradient id="paint2_linear" x1="1051.82" y1="24.2817" x2="1134.84" y2="67.7694" gradientUnits="userSpaceOnUse">
<stop stop-color="white" stop-opacity="0.1"/>
<stop offset="0.14" stop-color="white" stop-opacity="0.08"/>
<stop offset="0.61" stop-color="white" stop-opacity="0.02"/>
<stop offset="1" stop-color="white" stop-opacity="0"/>
</linearGradient>
<clipPath id="clip0">
<rect width="1437" height="746" fill="white"/>
</clipPath>
</defs>
</svg>
