<svg width="1440" height="746" viewBox="0 0 1440 746" fill="none" xmlns="http://www.w3.org/2000/svg">
<g clip-path="url(#clip0)">
<rect width="1440" height="746" fill="white"/>
<rect x="-21" y="-13" width="1458" height="759" fill="url(#paint0_linear)"/>
<path d="M-17.6847 -11.3015L1437.34 257.166L1437.34 747.699L459.591 747.699L-17.6846 747.699L-17.6847 -11.3015Z" fill="#188BF0"/>
<rect x="19" y="142" width="1045" height="490" rx="18" fill="#2096FD"/>
<path d="M1113 401C1113 391.059 1121.06 383 1131 383H1437V568H1131C1121.06 568 1113 559.941 1113 550V401Z" fill="#2396FC"/>
<path d="M456.632 386.751L537.092 386.78L537.083 403.374C516.035 403.374 494.978 403.308 473.92 403.402C472.312 403.961 473.071 406.072 472.89 407.368L472.953 452.001C473.487 453.676 475.511 452.872 476.758 453.08L530.766 453.052V469.627C513.974 469.617 497.192 469.617 480.4 469.627C477.906 469.617 475.384 469.456 472.917 469.901L472.727 532.907C467.314 532.68 461.91 532.889 456.496 532.765L456.487 389.43L456.632 386.751ZM556.604 386.78H573.124L573.133 485.946L572.953 532.642C567.575 532.538 562.198 532.51 556.83 532.661C556.414 530.352 556.586 528.004 556.586 525.675L556.604 386.78ZM718.302 399.076L734.876 399.086L734.903 428.43C743.01 428.639 751.162 428.052 759.25 428.724C759.024 433.987 759.214 439.25 759.124 444.513C751.062 444.532 743.01 444.599 734.958 444.475L734.894 502.919C735.066 508.334 736.169 514.875 741.193 517.667C746.932 521.084 753.981 519.475 759.413 516.181V533.182C753.43 536.022 746.607 536.363 740.181 535.444C731.126 533.996 722.45 527.531 719.712 518.131C717.895 512.981 718.311 507.425 718.275 502.048L718.238 445.129L717.832 444.646C712.111 444.324 706.372 444.693 700.643 444.485C700.679 439.127 700.444 433.769 700.769 428.421C706.589 428.317 712.436 428.696 718.247 428.232L718.302 399.076ZM788.324 399.019C793.837 399.218 799.349 398.953 804.853 399.152L805.233 399.587C805.441 409.224 804.953 418.889 805.45 428.506C813.303 428.355 821.157 428.478 829.001 428.43L829.055 444.39C821.157 444.703 813.231 444.513 805.332 444.466L805.242 503.922C805.233 509.1 806.661 515.225 811.442 517.771C817.307 521.122 824.419 519.399 829.869 515.973L829.851 533.068C824.04 535.814 817.488 536.344 811.216 535.586C803.073 534.45 795.102 529.632 791.279 521.823C789.435 517.733 788.405 513.209 788.233 508.693V444.532C782.513 444.523 776.801 444.551 771.089 444.532L771.125 428.374C776.756 428.535 782.386 428.326 788.016 428.525C788.613 418.718 787.971 408.845 788.324 399.019ZM868.775 428.98C880.216 424.01 893.42 423.915 905.105 428.08C918.49 432.917 928.847 445.148 932.643 459.337C935.128 467.203 935.028 475.562 934.676 483.741L856.005 483.826C856.656 492.601 859.159 501.546 864.979 508.135C873.249 518.235 887.482 521.984 899.502 518.017C907.934 515.414 914.513 508.618 918.842 500.808C923.632 503.051 928.286 505.607 933.058 507.908C926.533 520.933 914.667 531.279 900.722 534.081C889.272 536.325 876.746 536.381 866.244 530.456C852.616 523.366 843.235 508.93 840.56 493.406C838.617 481.478 839.223 468.86 843.506 457.539C847.998 445.11 857.081 434.347 868.775 428.98ZM875.002 443.945C865.377 448.603 859.177 458.949 857.243 469.627L917.577 469.428C916.619 462.452 914.251 455.361 909.371 450.316C900.822 440.717 886.208 438.843 875.002 443.945ZM970.491 445.318C976.79 429.292 996.14 420.877 1011.44 427.588V446.293C1005.01 443.642 997.811 442.005 991.024 444.097C981.752 446.984 974.893 455.645 972.263 465.178C970.455 471.615 971.133 478.336 971.205 484.933C970.5 493.472 971.558 502.02 971.025 510.558C971.458 517.932 970.645 525.306 971.241 532.69C965.62 532.974 959.999 532.671 954.387 532.87C954.061 510.615 954.341 488.351 954.251 466.087L954.378 428.61C959.646 428.762 964.924 428.591 970.202 428.724C970.681 434.252 969.615 439.809 970.491 445.318ZM596.82 428.402C602.424 428.648 608.072 428.052 613.648 428.714L613.567 490.755C613.513 498.337 614.543 506.62 619.55 512.508C626.011 520.005 636.956 521.378 645.794 518.415C657.606 513.985 665.848 500.884 665.369 487.783L665.55 428.402L682.423 428.44L682.324 532.614C676.973 532.519 671.632 532.614 666.291 532.548L666.228 517.724C662.767 522.277 659.134 526.887 654.172 529.755C644.014 536.467 631.127 537.357 619.748 533.92C612.41 531.601 606.021 526.215 602.342 519.172C597.977 511.429 596.875 502.275 596.622 493.453L596.82 428.402Z" fill="white"/>
<path d="M245.299 204.26L352.895 204.135L172.378 393.739L125.332 442.901L71.8041 386.581L245.299 204.26ZM244.298 373.553C245.694 371.615 248.263 372.57 250.213 372.321L352.803 372.349L259.303 470.508L205.499 414.312L244.298 373.553Z" fill="#44D1FD"/>
<path d="M151.866 470.605L205.499 414.312L259.304 470.508L259.527 470.757L205.512 526.994L151.866 470.605V470.605Z" fill="#1FBCFD"/>
<path d="M205.512 526.994L259.527 470.757L352.842 568.916C317.693 568.999 282.556 568.888 247.42 568.971C245.418 569.442 244.179 567.518 242.901 566.327L205.512 526.994V526.994Z" fill="#08589C"/>
<path d="M495.683 255.367V287.199C495.683 292.259 494.058 296.272 490.809 299.238C487.581 302.182 483.273 303.654 477.886 303.654C472.434 303.654 468.104 302.204 464.898 299.303C461.692 296.381 460.089 292.335 460.089 287.166V255.367H468.333V287.231C468.333 290.416 469.14 292.847 470.754 294.527C472.368 296.206 474.746 297.046 477.886 297.046C484.255 297.046 487.439 293.687 487.439 286.97V255.367H495.683ZM512.237 303H504.287V252.75H512.237V303ZM530.884 258.999V267.603H537.133V273.491H530.884V293.251C530.884 294.603 531.146 295.585 531.669 296.195C532.215 296.784 533.174 297.079 534.548 297.079C535.464 297.079 536.391 296.97 537.329 296.751V302.902C535.519 303.403 533.774 303.654 532.095 303.654C525.988 303.654 522.935 300.285 522.935 293.545V273.491H517.111V267.603H522.935V258.999H530.884ZM551.691 303H543.741V267.603H551.691V303ZM543.25 258.41C543.25 257.188 543.632 256.174 544.396 255.367C545.181 254.56 546.293 254.157 547.732 254.157C549.172 254.157 550.284 254.56 551.069 255.367C551.854 256.174 552.247 257.188 552.247 258.41C552.247 259.609 551.854 260.612 551.069 261.419C550.284 262.205 549.172 262.597 547.732 262.597C546.293 262.597 545.181 262.205 544.396 261.419C543.632 260.612 543.25 259.609 543.25 258.41ZM567.852 267.603L568.081 271.299C570.567 268.399 573.97 266.948 578.288 266.948C583.021 266.948 586.26 268.758 588.004 272.379C590.578 268.758 594.198 266.948 598.866 266.948C602.77 266.948 605.67 268.028 607.568 270.187C609.487 272.346 610.469 275.53 610.512 279.74V303H602.562V279.969C602.562 277.722 602.072 276.076 601.09 275.029C600.109 273.982 598.484 273.458 596.216 273.458C594.406 273.458 592.923 273.949 591.767 274.931C590.632 275.89 589.836 277.155 589.378 278.726L589.411 303H581.461V279.707C581.352 275.541 579.226 273.458 575.082 273.458C571.898 273.458 569.64 274.756 568.31 277.352V303H560.36V267.603H567.852ZM639.825 303C639.476 302.324 639.17 301.222 638.909 299.696C636.379 302.335 633.282 303.654 629.618 303.654C626.063 303.654 623.162 302.64 620.916 300.612C618.669 298.583 617.546 296.075 617.546 293.087C617.546 289.314 618.942 286.424 621.733 284.418C624.547 282.39 628.56 281.375 633.772 281.375H638.647V279.053C638.647 277.221 638.134 275.759 637.109 274.669C636.084 273.557 634.525 273 632.431 273C630.621 273 629.138 273.458 627.982 274.375C626.826 275.269 626.248 276.414 626.248 277.81H618.298C618.298 275.868 618.942 274.058 620.229 272.379C621.515 270.678 623.26 269.347 625.463 268.388C627.688 267.428 630.163 266.948 632.889 266.948C637.033 266.948 640.337 267.995 642.802 270.089C645.266 272.161 646.531 275.083 646.597 278.856V294.821C646.597 298.006 647.044 300.546 647.938 302.444V303H639.825ZM631.09 297.275C632.66 297.275 634.132 296.893 635.506 296.13C636.902 295.367 637.949 294.341 638.647 293.055V286.381H634.361C631.417 286.381 629.203 286.893 627.72 287.918C626.237 288.944 625.496 290.394 625.496 292.27C625.496 293.796 625.997 295.018 627 295.934C628.026 296.828 629.389 297.275 631.09 297.275ZM664.884 258.999V267.603H671.133V273.491H664.884V293.251C664.884 294.603 665.146 295.585 665.669 296.195C666.215 296.784 667.174 297.079 668.548 297.079C669.464 297.079 670.391 296.97 671.329 296.751V302.902C669.519 303.403 667.774 303.654 666.095 303.654C659.988 303.654 656.935 300.285 656.935 293.545V273.491H651.111V267.603H656.935V258.999H664.884ZM692.823 303.654C687.785 303.654 683.695 302.073 680.555 298.911C677.436 295.726 675.876 291.495 675.876 286.217V285.236C675.876 281.703 676.553 278.551 677.905 275.781C679.279 272.99 681.198 270.819 683.663 269.271C686.127 267.722 688.875 266.948 691.907 266.948C696.727 266.948 700.445 268.486 703.062 271.561C705.701 274.636 707.021 278.987 707.021 284.614V287.82H683.892C684.132 290.743 685.102 293.055 686.803 294.756C688.526 296.457 690.685 297.308 693.281 297.308C696.923 297.308 699.889 295.835 702.179 292.891L706.465 296.98C705.047 299.096 703.15 300.743 700.772 301.92C698.417 303.076 695.767 303.654 692.823 303.654ZM691.874 273.328C689.693 273.328 687.926 274.091 686.574 275.618C685.244 277.144 684.393 279.271 684.022 281.997H699.169V281.408C698.995 278.747 698.286 276.741 697.043 275.389C695.8 274.015 694.077 273.328 691.874 273.328ZM767.184 296.817C765.461 299.063 763.072 300.764 760.019 301.92C756.966 303.076 753.498 303.654 749.616 303.654C745.625 303.654 742.091 302.749 739.016 300.939C735.941 299.129 733.564 296.544 731.884 293.186C730.227 289.805 729.365 285.868 729.3 281.375V277.646C729.3 270.449 731.023 264.833 734.469 260.798C737.915 256.741 742.724 254.713 748.896 254.713C754.196 254.713 758.405 256.021 761.524 258.639C764.643 261.256 766.518 265.029 767.151 269.958H759.038C758.122 264.222 754.796 261.354 749.06 261.354C745.352 261.354 742.528 262.695 740.586 265.378C738.667 268.039 737.675 271.954 737.609 277.123V280.787C737.609 285.934 738.689 289.936 740.848 292.793C743.029 295.628 746.05 297.046 749.91 297.046C754.141 297.046 757.151 296.086 758.939 294.167V284.843H749.125V278.562H767.184V296.817ZM796.954 299.532C794.62 302.28 791.305 303.654 787.009 303.654C783.17 303.654 780.259 302.531 778.274 300.285C776.311 298.038 775.33 294.789 775.33 290.536V267.603H783.279V290.438C783.279 294.93 785.144 297.177 788.874 297.177C792.734 297.177 795.34 295.792 796.692 293.022V267.603H804.642V303H797.15L796.954 299.532ZM821.196 303H813.246V267.603H821.196V303ZM812.755 258.41C812.755 257.188 813.137 256.174 813.9 255.367C814.686 254.56 815.798 254.157 817.237 254.157C818.677 254.157 819.789 254.56 820.574 255.367C821.359 256.174 821.752 257.188 821.752 258.41C821.752 259.609 821.359 260.612 820.574 261.419C819.789 262.205 818.677 262.597 817.237 262.597C815.798 262.597 814.686 262.205 813.9 261.419C813.137 260.612 812.755 259.609 812.755 258.41ZM828.393 285.04C828.393 279.587 829.658 275.214 832.188 271.921C834.718 268.606 838.109 266.948 842.362 266.948C846.114 266.948 849.145 268.257 851.457 270.874V252.75H859.407V303H852.209L851.817 299.336C849.44 302.215 846.266 303.654 842.297 303.654C838.153 303.654 834.794 301.986 832.221 298.649C829.669 295.312 828.393 290.776 828.393 285.04ZM836.343 285.727C836.343 289.325 837.03 292.139 838.404 294.167C839.8 296.174 841.773 297.177 844.325 297.177C847.575 297.177 849.952 295.726 851.457 292.826V277.711C849.996 274.876 847.64 273.458 844.391 273.458C841.817 273.458 839.832 274.484 838.437 276.534C837.041 278.562 836.343 281.626 836.343 285.727ZM883.289 303.654C878.25 303.654 874.161 302.073 871.021 298.911C867.902 295.726 866.342 291.495 866.342 286.217V285.236C866.342 281.703 867.018 278.551 868.371 275.781C869.745 272.99 871.664 270.819 874.128 269.271C876.593 267.722 879.341 266.948 882.373 266.948C887.193 266.948 890.911 268.486 893.528 271.561C896.167 274.636 897.487 278.987 897.487 284.614V287.82H874.357C874.597 290.743 875.568 293.055 877.269 294.756C878.992 296.457 881.151 297.308 883.747 297.308C887.389 297.308 890.355 295.835 892.645 292.891L896.931 296.98C895.513 299.096 893.616 300.743 891.238 301.92C888.883 303.076 886.233 303.654 883.289 303.654ZM882.34 273.328C880.159 273.328 878.392 274.091 877.04 275.618C875.71 277.144 874.859 279.271 874.488 281.997H889.635V281.408C889.461 278.747 888.752 276.741 887.509 275.389C886.266 274.015 884.543 273.328 882.34 273.328ZM930.333 258.999V267.603H936.581V273.491H930.333V293.251C930.333 294.603 930.594 295.585 931.118 296.195C931.663 296.784 932.623 297.079 933.997 297.079C934.913 297.079 935.84 296.97 936.777 296.751V302.902C934.967 303.403 933.222 303.654 931.543 303.654C925.436 303.654 922.383 300.285 922.383 293.545V273.491H916.56V267.603H922.383V258.999H930.333ZM940.212 284.974C940.212 281.506 940.899 278.388 942.273 275.618C943.647 272.826 945.578 270.689 948.064 269.206C950.55 267.701 953.407 266.948 956.635 266.948C961.412 266.948 965.283 268.486 968.249 271.561C971.237 274.636 972.851 278.715 973.091 283.796L973.124 285.661C973.124 289.151 972.447 292.27 971.095 295.018C969.765 297.766 967.846 299.892 965.337 301.397C962.851 302.902 959.972 303.654 956.701 303.654C951.706 303.654 947.704 301.997 944.694 298.682C941.706 295.345 940.212 290.906 940.212 285.367V284.974ZM948.162 285.661C948.162 289.303 948.915 292.16 950.419 294.232C951.924 296.283 954.018 297.308 956.701 297.308C959.383 297.308 961.466 296.261 962.949 294.167C964.454 292.073 965.207 289.009 965.207 284.974C965.207 281.397 964.432 278.562 962.884 276.468C961.357 274.375 959.274 273.328 956.635 273.328C954.04 273.328 951.979 274.364 950.452 276.436C948.925 278.486 948.162 281.561 948.162 285.661Z" fill="white"/>
<path d="M860.634 26.8143H876.369C881.709 26.8143 886.369 27.9165 890.355 30.1268C894.336 32.337 897.397 35.4097 899.533 39.339C901.669 43.274 902.737 47.7859 902.737 52.886C902.737 57.9861 901.669 62.498 899.533 66.433C897.397 70.368 894.336 73.435 890.355 75.6452C886.375 77.8555 881.714 78.9577 876.369 78.9577H860.634V26.8143V26.8143ZM876.369 73.0695C882.537 73.0695 887.426 71.299 891.047 67.7523C894.662 64.2056 896.472 59.254 896.472 52.8917C896.472 46.5294 894.662 41.5778 891.047 38.0311C887.431 34.4844 882.537 32.714 876.369 32.714H866.757V73.0637H876.369V73.0695Z" fill="white"/>
<path d="M912.269 78.5294C910.133 77.4614 908.483 75.9936 907.318 74.1203C906.153 72.2528 905.57 70.1282 905.57 67.7466C905.57 63.8116 907.049 60.7446 910.014 58.5344C912.972 56.3242 916.713 55.2219 921.23 55.2219C923.463 55.2219 925.537 55.4675 927.456 55.9529C929.375 56.4384 930.842 56.9981 931.865 57.6263V55.3704C931.865 52.6004 930.894 50.3788 928.952 48.7054C927.01 47.032 924.554 46.1925 921.596 46.1925C919.506 46.1925 917.592 46.6436 915.839 47.5403C914.091 48.437 912.709 49.6877 911.687 51.2926L907.027 47.7973C908.483 45.5642 910.488 43.8166 913.035 42.5544C915.582 41.2922 918.415 40.6583 921.522 40.6583C926.57 40.6583 930.54 41.9833 933.43 44.6276C936.319 47.2776 937.764 50.8814 937.764 55.4446V78.9692H931.865V73.652H931.573C930.505 75.451 928.901 76.9759 926.765 78.2381C924.629 79.5003 922.224 80.1342 919.551 80.1342C916.838 80.1342 914.411 79.5974 912.269 78.5294ZM925.965 73.0695C927.758 72.0015 929.192 70.5679 930.26 68.7746C931.328 66.9813 931.865 65.0109 931.865 62.8749C930.7 62.0982 929.266 61.4643 927.57 60.9788C925.868 60.4934 924.075 60.2478 922.178 60.2478C918.78 60.2478 916.216 60.9503 914.497 62.3609C912.772 63.7716 911.91 65.5935 911.91 67.8208C911.91 69.8598 912.686 71.5103 914.24 72.7725C915.793 74.0347 917.758 74.6686 920.14 74.6686C922.224 74.6686 924.172 74.1375 925.965 73.0695Z" fill="white"/>
<path d="M944.298 42.4059H950.198V48.3056H950.489C951.363 46.1182 952.842 44.422 954.932 43.2055C957.017 41.9947 959.301 41.3836 961.78 41.3836C962.848 41.3836 963.745 41.4579 964.476 41.6006V47.9401C963.648 47.7459 962.534 47.6488 961.123 47.6488C957.965 47.6488 955.406 48.694 953.442 50.7786C951.477 52.8689 950.489 55.5874 950.489 58.9342V79.546H944.298V42.4059ZM982.746 79.3918C981.461 78.9006 980.382 78.2324 979.502 77.3871C978.531 76.4505 977.8 75.3597 977.315 74.126C976.829 72.8924 976.584 71.3847 976.584 69.6028V47.4318H970.101V41.8234H976.584V31.3376H982.775V41.8234H991.804V47.4318H982.775V68.1293C982.775 70.2139 983.163 71.7502 983.94 72.7439C984.859 73.8348 986.196 74.383 987.943 74.383C989.348 74.383 990.713 73.9718 992.021 73.1437V79.1919C991.29 79.5289 990.553 79.7744 989.799 79.9229C989.046 80.0714 988.086 80.14 986.921 80.14C985.43 80.1342 984.037 79.883 982.746 79.3918Z" fill="white"/>
<path d="M777.056 75.4377L763.761 62.142C762.184 60.52 761.202 58.2355 761.202 56.0024C761.202 54.9687 761.784 53.3524 762.224 52.4215L774.498 26.8524L777.056 75.4377Z" fill="#01579B"/>
<path d="M822.575 29.411L809.279 16.1152C808.12 14.9502 805.698 13.5566 803.653 13.5566C801.894 13.5566 800.17 13.9107 799.05 14.5789L774.503 26.8523L822.575 29.411Z" fill="#40C4FF"/>
<path d="M792.911 91.2921H825.134V77.4823L801.095 69.8121L779.107 77.4823L792.911 91.2921Z" fill="#40C4FF"/>
<path d="M774.503 68.2815C774.503 72.3822 775.017 73.3931 777.062 75.4434L779.107 77.488H825.133L802.631 51.9189L774.503 26.858V68.2815Z" fill="#29B6F6"/>
<path d="M815.413 26.8524H774.498L825.128 77.4823H838.937V45.7736L822.575 29.411C820.279 27.1036 818.234 26.8524 815.413 26.8524Z" fill="#01579B"/>
<path opacity="0.2" d="M777.57 75.9517C775.526 73.8957 775.012 71.8739 775.012 68.2816V27.3664L774.498 26.8524V68.2758C774.503 71.8739 774.503 72.8677 777.57 75.9517L779.107 77.488L777.57 75.9517Z" fill="white"/>
<path opacity="0.2" d="M838.429 45.2653V76.974H824.619L825.133 77.4823H838.943V45.7793L838.429 45.2653Z" fill="#263238"/>
<path opacity="0.2" d="M822.575 29.411C820.039 26.8752 817.96 26.8524 814.904 26.8524H774.503L775.017 27.3664H814.91C816.429 27.3664 820.284 27.1094 822.575 29.411Z" fill="white"/>
<path opacity="0.2" d="M838.431 45.2653L822.576 29.411L809.281 16.1153C808.121 14.9502 805.7 13.5566 803.655 13.5566C801.896 13.5566 800.171 13.9107 799.052 14.5789L774.505 26.8523L762.232 52.4215C761.792 53.3524 761.209 54.9687 761.209 56.0024C761.209 58.2355 762.192 60.52 763.768 62.142L776.024 74.3069C776.315 74.6667 776.658 75.0322 777.069 75.4377L777.583 75.9517L779.12 77.488L792.415 90.7838L792.929 91.2978H824.638H825.152V77.488H838.962V77.4538V45.7793L838.431 45.2653Z" fill="url(#paint1_radial)"/>
<path d="M1154.13 79.2759H1147.99V31.6422H1175.87V37.4945H1154.13V53.1333H1173.73V58.8504H1154.13L1154.13 79.2759ZM1187.41 38.4975C1185.94 39.9634 1183.65 40.1936 1181.92 39.0475C1180.19 37.9014 1179.52 35.6982 1180.31 33.786C1181.1 31.8739 1183.14 30.7855 1185.17 31.187C1187.21 31.5884 1188.67 33.3679 1188.67 35.4363C1188.69 36.5883 1188.23 37.6969 1187.4 38.4975H1187.41ZM1187.41 79.2759H1181.27V46.6782H1187.41V79.2759ZM1200.88 79.2759H1194.74V46.6782H1200.6V52.0004H1200.87C1201.58 50.1249 1202.94 48.5661 1204.71 47.6086C1206.39 46.5292 1208.34 45.9307 1210.34 45.8779C1211.92 45.8333 1213.48 46.1055 1214.94 46.6782L1212.61 52.3953C1211.56 52.0458 1210.45 51.8874 1209.34 51.9275C1207.09 51.9389 1204.95 52.8932 1203.44 54.5574C1201.73 56.3106 1200.87 58.6061 1200.87 61.4438L1200.88 79.2759ZM1231.76 80.3154C1226.83 80.3154 1222.82 78.6747 1219.73 75.394C1216.64 72.1132 1215.09 67.9739 1215.09 62.9775C1215 58.4789 1216.61 54.1105 1219.59 50.7377C1222.45 47.3806 1226.68 45.4964 1231.1 45.6125C1235.94 45.6125 1239.82 47.1873 1242.74 50.3369C1245.65 53.4864 1247.11 57.6998 1247.1 62.9768L1247.04 64.1099H1221.22C1221.39 67.3911 1222.5 69.9898 1224.52 71.9059C1226.41 73.7601 1228.97 74.7884 1231.62 74.7645C1236.02 74.7645 1239 72.9014 1240.56 69.1773L1246.03 71.4381C1244.92 74.0155 1243.09 76.2203 1240.76 77.7893C1238.31 79.4732 1235.31 80.3154 1231.76 80.3154ZM1240.57 59.0062C1240.44 57.1422 1239.58 55.3681 1238 53.6841C1236.42 52.0001 1234.07 51.1756 1230.95 51.2102C1228.79 51.1724 1226.69 51.931 1225.05 53.3412C1223.33 54.8413 1222.13 56.841 1221.61 59.0582L1240.57 59.0062ZM1269.28 80.3154C1266.96 80.3613 1264.66 79.8252 1262.6 78.7562C1260.79 77.8457 1259.26 76.4672 1258.17 74.7646H1257.9V79.276H1252.03V31.6422H1258.17V46.6782L1257.9 51.1999H1258.17C1259.26 49.4973 1260.79 48.1188 1262.6 47.2084C1264.66 46.1269 1266.95 45.5783 1269.28 45.6128C1273.5 45.6128 1277.15 47.276 1280.22 50.6023C1283.29 53.9286 1284.83 58.0535 1284.82 62.9771C1284.82 67.9007 1283.29 72.0257 1280.22 75.352C1277.15 78.6783 1273.51 80.3327 1269.28 80.3154ZM1268.28 74.7282C1271.08 74.7503 1273.75 73.5751 1275.62 71.5006C1277.66 69.3489 1278.68 66.4991 1278.68 62.951C1278.68 59.4028 1277.66 56.5531 1275.62 54.4013C1273.72 52.3516 1271.06 51.1827 1268.27 51.1767C1265.48 51.1707 1262.81 52.3285 1260.91 54.37C1258.89 56.4975 1257.88 59.3577 1257.88 62.9508C1257.88 66.5439 1258.9 69.4128 1260.94 71.5576C1262.82 73.6244 1265.5 74.7881 1268.3 74.754L1268.28 74.7282ZM1300.45 80.3154C1296.98 80.3154 1294.07 79.3174 1291.75 77.3217C1289.42 75.326 1288.25 72.6875 1288.25 69.4062C1288.25 65.8581 1289.62 63.0758 1292.38 61.0592C1295.14 59.0425 1298.54 58.0343 1302.59 58.0343C1306.19 58.0343 1309.14 58.6996 1311.44 60.0301V59.0998C1311.53 56.9088 1310.62 54.795 1308.97 53.3464C1307.29 51.9027 1305.13 51.1404 1302.91 51.2103C1301.22 51.1892 1299.55 51.6249 1298.08 52.4732C1296.7 53.2331 1295.65 54.462 1295.11 55.9347L1289.51 53.5386C1290.26 51.581 1291.75 49.7653 1293.98 48.0919C1296.21 46.4184 1299.14 45.5867 1302.79 45.5971C1306.96 45.5971 1310.43 46.8099 1313.21 49.2352C1315.99 51.6606 1317.37 55.0978 1317.35 59.5468V79.276H1311.46V74.7542H1311.19C1308.75 78.4617 1305.17 80.3084 1300.46 80.3084L1300.45 80.3154ZM1301.45 74.7282C1304.03 74.7192 1306.5 73.7153 1308.36 71.9268C1310.33 70.2652 1311.48 67.8209 1311.48 65.2429C1309.75 63.8223 1307.14 63.112 1303.67 63.112C1300.69 63.112 1298.44 63.7547 1296.93 65.0402C1295.52 66.1215 1294.69 67.7879 1294.67 69.5619C1294.64 71.1057 1295.43 72.5499 1296.75 73.3559C1298.14 74.2868 1299.78 74.7744 1301.45 74.754L1301.45 74.7282ZM1335.4 80.3154C1331.75 80.3154 1328.74 79.4283 1326.36 77.6543C1324.05 75.9513 1322.25 73.6511 1321.15 71.0017L1326.62 68.7408C1328.36 72.8225 1331.31 74.8634 1335.48 74.8634C1337.14 74.931 1338.77 74.4902 1340.17 73.6004C1341.32 72.8871 1342.02 71.6262 1342 70.2741C1342 68.1466 1340.51 66.7052 1337.53 65.9499L1330.92 64.3543C1328.75 63.781 1326.73 62.7495 1324.99 61.3294C1323.14 59.8899 1322.09 57.6501 1322.19 55.3109C1322.19 52.4284 1323.46 50.0893 1326.02 48.2944C1328.69 46.4633 1331.88 45.5211 1335.12 45.6022C1337.83 45.559 1340.5 46.2392 1342.86 47.572C1345.08 48.8312 1346.8 50.8176 1347.72 53.1956L1342.39 55.368C1341.19 52.4855 1338.7 51.0438 1334.92 51.0438C1333.31 50.9903 1331.72 51.3827 1330.32 52.1768C1329.17 52.7693 1328.45 53.9501 1328.45 55.2381C1328.45 57.1022 1329.9 58.3669 1332.79 59.0321L1339.25 60.5654C1342.32 61.2584 1344.59 62.4711 1346.06 64.2035C1347.48 65.8219 1348.27 67.9029 1348.26 70.0557C1348.29 72.9259 1346.95 75.6401 1344.66 77.3736C1342.26 79.3347 1339.17 80.3153 1335.39 80.3153L1335.4 80.3154ZM1368.41 80.3154C1363.47 80.3154 1359.46 78.6747 1356.37 75.394C1353.29 72.1132 1351.74 67.9647 1351.74 62.951C1351.64 58.4525 1353.25 54.0841 1356.24 50.7113C1359.11 47.3626 1363.34 45.4885 1367.76 45.6127C1372.62 45.6127 1376.5 47.1876 1379.4 50.3371C1382.3 53.4867 1383.75 57.7 1383.76 62.977L1383.7 64.1101H1357.86C1358.03 67.3913 1359.14 69.99 1361.16 71.9061C1363.06 73.7603 1365.62 74.7851 1368.28 74.7542C1372.68 74.7542 1375.66 72.8911 1377.21 69.167L1382.69 71.4278C1381.58 74.0053 1379.75 76.2101 1377.42 77.7789C1374.97 79.4698 1371.97 80.3154 1368.41 80.3154ZM1377.22 59.0062C1377.08 57.1422 1376.23 55.3681 1374.65 53.6841C1373.07 52.0001 1370.72 51.1756 1367.61 51.2102C1365.44 51.1729 1363.34 51.9315 1361.7 53.3412C1359.99 54.8413 1358.79 56.841 1358.27 59.0582L1377.22 59.0062Z" fill="white"/>
<path d="M1056.22 82.9325L1067.51 10.3573C1067.65 9.46721 1068.33 8.76556 1069.22 8.61469C1070.1 8.46381 1070.98 8.89788 1071.41 9.69226L1083.08 31.5695L1087.73 22.6677C1088.09 21.9795 1088.8 21.5485 1089.57 21.5485C1090.35 21.5485 1091.06 21.9795 1091.42 22.6677L1122.92 82.9324H1056.22V82.9325Z" fill="#FFA000"/>
<path d="M1095.21 54.6617L1083.07 31.5591L1056.22 82.9326L1095.21 54.6617Z" fill="#F57C00"/>
<path d="M1122.92 82.9325L1114.27 29.1766C1114.14 28.4046 1113.6 27.7705 1112.85 27.5314C1112.11 27.2924 1111.3 27.4914 1110.75 28.0448L1056.22 82.9318L1086.39 99.9341C1088.29 100.997 1090.59 100.997 1092.49 99.9341L1122.92 82.9318V82.9325Z" fill="#FFCA28"/>
<path d="M1114.27 29.1765C1114.14 28.4046 1113.6 27.7704 1112.85 27.5314C1112.11 27.2924 1111.3 27.4913 1110.75 28.0448L1099.92 38.9475L1091.41 22.6674C1091.05 21.9791 1090.34 21.5481 1089.57 21.5481C1088.8 21.5481 1088.09 21.9791 1087.73 22.6674L1083.07 31.5691L1071.4 9.69224C1070.98 8.89764 1070.09 8.46428 1069.21 8.61628C1068.33 8.76828 1067.64 9.47169 1067.5 10.3625L1056.22 82.9325H1056.18L1056.22 82.9744L1056.52 83.121L1110.73 28.5796C1111.28 28.0231 1112.1 27.8231 1112.84 28.0614C1113.59 28.2998 1114.13 28.9364 1114.26 29.7106L1122.84 82.9847L1122.92 82.9324L1114.27 29.1764L1114.27 29.1765ZM1056.32 82.833L1067.51 10.8757C1067.64 9.98492 1068.33 9.28151 1069.22 9.12951C1070.1 8.97751 1070.98 9.41073 1071.41 10.2055L1083.08 32.0827L1087.73 23.1809C1088.09 22.4927 1088.8 22.0617 1089.57 22.0617C1090.35 22.0617 1091.06 22.4927 1091.42 23.1809L1099.76 39.115L1056.32 82.833H1056.32Z" fill="white" fill-opacity="0.2"/>
<path opacity="0.2" d="M1092.49 99.4217C1090.59 100.485 1088.29 100.485 1086.39 99.4217L1056.29 82.4666L1056.22 82.9327L1086.39 99.9298C1088.29 100.993 1090.59 100.993 1092.49 99.9298L1122.92 82.9327L1122.84 82.451L1092.49 99.4219V99.4217Z" fill="#A52714"/>
<path d="M1114.19 29.1877C1114.06 28.4159 1113.51 27.7815 1112.77 27.5439C1112.03 27.3063 1111.22 27.5038 1110.67 28.0571L1099.89 38.9544L1091.41 22.6818C1091.05 21.9938 1090.34 21.5629 1089.57 21.5629C1088.8 21.5629 1088.09 21.9938 1087.73 22.6818L1083.09 31.5797L1071.46 9.71185C1071.04 8.9176 1070.16 8.48431 1069.28 8.63638C1068.4 8.78845 1067.72 9.4913 1067.58 10.3819L1056.34 82.9201L1086.4 99.9097C1088.29 100.972 1090.59 100.972 1092.48 99.9097L1122.8 82.9201L1114.19 29.1875V29.1877Z" fill="url(#paint2_linear)"/>
<path opacity="0.7" d="M637.734 71.0234L642.609 51.6406H646.945L639.562 77H636.047L629.883 57.7812L623.883 77H620.367L613.008 51.6406H617.32L622.312 70.625L628.219 51.6406H631.711L637.734 71.0234ZM656.086 77H651.75V51.6406H656.086V77ZM651.398 44.9141C651.398 44.2109 651.609 43.6172 652.031 43.1328C652.469 42.6484 653.109 42.4062 653.953 42.4062C654.797 42.4062 655.438 42.6484 655.875 43.1328C656.312 43.6172 656.531 44.2109 656.531 44.9141C656.531 45.6172 656.312 46.2031 655.875 46.6719C655.438 47.1406 654.797 47.375 653.953 47.375C653.109 47.375 652.469 47.1406 652.031 46.6719C651.609 46.2031 651.398 45.6172 651.398 44.9141ZM668.93 45.5V51.6406H673.664V54.9922H668.93V70.7188C668.93 71.7344 669.141 72.5 669.562 73.0156C669.984 73.5156 670.703 73.7656 671.719 73.7656C672.219 73.7656 672.906 73.6719 673.781 73.4844V77C672.641 77.3125 671.531 77.4688 670.453 77.4688C668.516 77.4688 667.055 76.8828 666.07 75.7109C665.086 74.5391 664.594 72.875 664.594 70.7188V54.9922H659.977V51.6406H664.594V45.5H668.93ZM683.086 54.7109C685.008 52.3516 687.508 51.1719 690.586 51.1719C695.945 51.1719 698.648 54.1953 698.695 60.2422V77H694.359V60.2188C694.344 58.3906 693.922 57.0391 693.094 56.1641C692.281 55.2891 691.008 54.8516 689.273 54.8516C687.867 54.8516 686.633 55.2266 685.57 55.9766C684.508 56.7266 683.68 57.7109 683.086 58.9297V77H678.75V41H683.086V54.7109Z" fill="white"/>
<path d="M1254.56 436.799H1245.94V443.854H1255.96V446H1243.31V426.094H1255.82V428.254H1245.94V434.652H1254.56V436.799ZM1263.79 436.607L1267.07 431.207H1270.03L1265.19 438.521L1270.18 446H1267.25L1263.83 440.463L1260.41 446H1257.47L1262.46 438.521L1257.62 431.207H1260.55L1263.79 436.607ZM1285.21 438.768C1285.21 441.019 1284.7 442.833 1283.67 444.209C1282.64 445.585 1281.25 446.273 1279.49 446.273C1277.69 446.273 1276.28 445.704 1275.25 444.564V451.688H1272.72V431.207H1275.03L1275.15 432.848C1276.18 431.572 1277.61 430.934 1279.45 430.934C1281.22 430.934 1282.63 431.604 1283.66 432.943C1284.7 434.283 1285.21 436.147 1285.21 438.535V438.768ZM1282.69 438.48C1282.69 436.812 1282.33 435.495 1281.62 434.529C1280.91 433.563 1279.93 433.08 1278.69 433.08C1277.16 433.08 1276.01 433.759 1275.25 435.117V442.186C1276 443.535 1277.16 444.209 1278.72 444.209C1279.93 444.209 1280.89 443.73 1281.61 442.773C1282.33 441.807 1282.69 440.376 1282.69 438.48ZM1291.19 446H1288.66V425H1291.19V446ZM1304.38 446C1304.24 445.708 1304.12 445.189 1304.03 444.441C1302.85 445.663 1301.45 446.273 1299.82 446.273C1298.36 446.273 1297.16 445.863 1296.22 445.043C1295.29 444.214 1294.83 443.165 1294.83 441.898C1294.83 440.358 1295.41 439.164 1296.58 438.316C1297.75 437.46 1299.4 437.031 1301.53 437.031H1303.99V435.869C1303.99 434.985 1303.72 434.283 1303.19 433.764C1302.66 433.235 1301.89 432.971 1300.86 432.971C1299.95 432.971 1299.2 433.199 1298.59 433.654C1297.98 434.11 1297.67 434.661 1297.67 435.309H1295.13C1295.13 434.57 1295.39 433.859 1295.91 433.176C1296.43 432.483 1297.15 431.936 1298.04 431.535C1298.94 431.134 1299.93 430.934 1301.01 430.934C1302.71 430.934 1304.05 431.362 1305.01 432.219C1305.98 433.066 1306.48 434.238 1306.52 435.732V442.541C1306.52 443.899 1306.69 444.979 1307.04 445.781V446H1304.38ZM1300.19 444.072C1300.98 444.072 1301.73 443.867 1302.44 443.457C1303.15 443.047 1303.67 442.514 1303.99 441.857V438.822H1302C1298.9 438.822 1297.36 439.729 1297.36 441.543C1297.36 442.336 1297.62 442.956 1298.15 443.402C1298.68 443.849 1299.36 444.072 1300.19 444.072ZM1312.87 431.207L1312.96 433.066C1314.09 431.645 1315.56 430.934 1317.38 430.934C1320.51 430.934 1322.09 432.697 1322.12 436.225V446H1319.59V436.211C1319.58 435.145 1319.33 434.356 1318.85 433.846C1318.37 433.335 1317.63 433.08 1316.62 433.08C1315.8 433.08 1315.08 433.299 1314.46 433.736C1313.84 434.174 1313.36 434.748 1313.01 435.459V446H1310.48V431.207H1312.87ZM1335.06 446C1334.92 445.708 1334.8 445.189 1334.71 444.441C1333.53 445.663 1332.13 446.273 1330.5 446.273C1329.04 446.273 1327.84 445.863 1326.9 445.043C1325.97 444.214 1325.51 443.165 1325.51 441.898C1325.51 440.358 1326.09 439.164 1327.26 438.316C1328.43 437.46 1330.08 437.031 1332.21 437.031H1334.67V435.869C1334.67 434.985 1334.4 434.283 1333.87 433.764C1333.34 433.235 1332.57 432.971 1331.54 432.971C1330.63 432.971 1329.88 433.199 1329.27 433.654C1328.65 434.11 1328.35 434.661 1328.35 435.309H1325.81C1325.81 434.57 1326.07 433.859 1326.59 433.176C1327.11 432.483 1327.83 431.936 1328.72 431.535C1329.62 431.134 1330.61 430.934 1331.69 430.934C1333.39 430.934 1334.73 431.362 1335.69 432.219C1336.66 433.066 1337.16 434.238 1337.2 435.732V442.541C1337.2 443.899 1337.37 444.979 1337.71 445.781V446H1335.06ZM1330.87 444.072C1331.66 444.072 1332.41 443.867 1333.12 443.457C1333.83 443.047 1334.35 442.514 1334.67 441.857V438.822H1332.68C1329.58 438.822 1328.04 439.729 1328.04 441.543C1328.04 442.336 1328.3 442.956 1328.83 443.402C1329.36 443.849 1330.04 444.072 1330.87 444.072ZM1344.59 427.625V431.207H1347.35V433.162H1344.59V442.336C1344.59 442.928 1344.71 443.375 1344.96 443.676C1345.21 443.967 1345.63 444.113 1346.22 444.113C1346.51 444.113 1346.91 444.059 1347.42 443.949V446C1346.76 446.182 1346.11 446.273 1345.48 446.273C1344.35 446.273 1343.5 445.932 1342.92 445.248C1342.35 444.564 1342.06 443.594 1342.06 442.336V433.162H1339.37V431.207H1342.06V427.625H1344.59ZM1353.07 446H1350.54V431.207H1353.07V446ZM1350.33 427.283C1350.33 426.873 1350.46 426.527 1350.7 426.244C1350.96 425.962 1351.33 425.82 1351.82 425.82C1352.32 425.82 1352.69 425.962 1352.95 426.244C1353.2 426.527 1353.33 426.873 1353.33 427.283C1353.33 427.693 1353.2 428.035 1352.95 428.309C1352.69 428.582 1352.32 428.719 1351.82 428.719C1351.33 428.719 1350.96 428.582 1350.7 428.309C1350.46 428.035 1350.33 427.693 1350.33 427.283ZM1356.46 438.467C1356.46 437.018 1356.74 435.714 1357.31 434.557C1357.88 433.399 1358.67 432.506 1359.69 431.877C1360.71 431.248 1361.87 430.934 1363.17 430.934C1365.19 430.934 1366.81 431.631 1368.05 433.025C1369.3 434.42 1369.93 436.275 1369.93 438.59V438.768C1369.93 440.208 1369.65 441.502 1369.09 442.65C1368.54 443.79 1367.76 444.678 1366.73 445.316C1365.71 445.954 1364.53 446.273 1363.2 446.273C1361.19 446.273 1359.57 445.576 1358.32 444.182C1357.08 442.787 1356.46 440.941 1356.46 438.645V438.467ZM1359 438.768C1359 440.408 1359.38 441.725 1360.14 442.719C1360.9 443.712 1361.92 444.209 1363.2 444.209C1364.48 444.209 1365.51 443.708 1366.26 442.705C1367.02 441.693 1367.4 440.281 1367.4 438.467C1367.4 436.844 1367.01 435.532 1366.23 434.529C1365.47 433.518 1364.45 433.012 1363.17 433.012C1361.92 433.012 1360.92 433.508 1360.15 434.502C1359.38 435.495 1359 436.917 1359 438.768ZM1375.49 431.207L1375.57 433.066C1376.7 431.645 1378.18 430.934 1380 430.934C1383.13 430.934 1384.71 432.697 1384.73 436.225V446H1382.2V436.211C1382.19 435.145 1381.95 434.356 1381.46 433.846C1380.99 433.335 1380.25 433.08 1379.24 433.08C1378.42 433.08 1377.7 433.299 1377.08 433.736C1376.46 434.174 1375.97 434.748 1375.63 435.459V446H1373.1V431.207H1375.49ZM1397.16 442.076C1397.16 441.393 1396.9 440.864 1396.38 440.49C1395.87 440.107 1394.97 439.779 1393.69 439.506C1392.41 439.232 1391.4 438.904 1390.64 438.521C1389.89 438.139 1389.34 437.683 1388.97 437.154C1388.62 436.626 1388.44 435.997 1388.44 435.268C1388.44 434.055 1388.95 433.03 1389.97 432.191C1391 431.353 1392.31 430.934 1393.91 430.934C1395.58 430.934 1396.94 431.367 1397.98 432.232C1399.03 433.098 1399.55 434.206 1399.55 435.555H1397.01C1397.01 434.862 1396.71 434.265 1396.12 433.764C1395.54 433.262 1394.8 433.012 1393.91 433.012C1392.99 433.012 1392.27 433.212 1391.75 433.613C1391.23 434.014 1390.97 434.538 1390.97 435.186C1390.97 435.796 1391.21 436.257 1391.69 436.566C1392.17 436.876 1393.04 437.173 1394.3 437.455C1395.57 437.738 1396.6 438.075 1397.38 438.467C1398.16 438.859 1398.74 439.333 1399.12 439.889C1399.5 440.436 1399.69 441.105 1399.69 441.898C1399.69 443.22 1399.16 444.282 1398.1 445.084C1397.05 445.877 1395.67 446.273 1393.99 446.273C1392.8 446.273 1391.76 446.064 1390.84 445.645C1389.93 445.225 1389.22 444.642 1388.7 443.895C1388.19 443.138 1387.93 442.322 1387.93 441.447H1390.46C1390.51 442.295 1390.84 442.969 1391.47 443.471C1392.11 443.963 1392.95 444.209 1393.99 444.209C1394.95 444.209 1395.71 444.018 1396.29 443.635C1396.87 443.243 1397.16 442.723 1397.16 442.076ZM1402.9 449.965L1401.47 448.98C1402.32 447.786 1402.77 446.556 1402.81 445.289V443.006H1405.28V444.988C1405.28 445.909 1405.05 446.829 1404.6 447.75C1404.15 448.671 1403.59 449.409 1402.9 449.965ZM1250.61 476.947H1245.94V485H1243.3V465.094H1249.89C1252.13 465.094 1253.85 465.604 1255.05 466.625C1256.27 467.646 1256.87 469.132 1256.87 471.082C1256.87 472.322 1256.54 473.402 1255.86 474.322C1255.2 475.243 1254.27 475.931 1253.07 476.387L1257.75 484.836V485H1254.93L1250.61 476.947ZM1245.94 474.801H1249.97C1251.27 474.801 1252.31 474.464 1253.07 473.789C1253.85 473.115 1254.23 472.212 1254.23 471.082C1254.23 469.852 1253.87 468.908 1253.13 468.252C1252.4 467.596 1251.34 467.263 1249.96 467.254H1245.94V474.801ZM1266.31 485.273C1264.3 485.273 1262.67 484.617 1261.41 483.305C1260.15 481.983 1259.53 480.219 1259.53 478.014V477.549C1259.53 476.081 1259.8 474.773 1260.36 473.625C1260.92 472.467 1261.71 471.565 1262.71 470.918C1263.72 470.262 1264.82 469.934 1265.99 469.934C1267.92 469.934 1269.41 470.567 1270.48 471.834C1271.54 473.101 1272.08 474.915 1272.08 477.275V478.328H1262.05C1262.09 479.786 1262.51 480.967 1263.33 481.869C1264.15 482.762 1265.19 483.209 1266.44 483.209C1267.34 483.209 1268.09 483.027 1268.71 482.662C1269.33 482.298 1269.88 481.814 1270.34 481.213L1271.88 482.416C1270.65 484.321 1268.79 485.273 1266.31 485.273ZM1265.99 472.012C1264.97 472.012 1264.11 472.385 1263.42 473.133C1262.73 473.871 1262.3 474.91 1262.14 476.25H1269.55V476.059C1269.47 474.773 1269.13 473.78 1268.51 473.078C1267.89 472.367 1267.05 472.012 1265.99 472.012ZM1283.63 481.076C1283.63 480.393 1283.37 479.864 1282.85 479.49C1282.34 479.107 1281.44 478.779 1280.16 478.506C1278.88 478.232 1277.86 477.904 1277.11 477.521C1276.36 477.139 1275.8 476.683 1275.44 476.154C1275.08 475.626 1274.91 474.997 1274.91 474.268C1274.91 473.055 1275.42 472.03 1276.44 471.191C1277.47 470.353 1278.78 469.934 1280.38 469.934C1282.05 469.934 1283.41 470.367 1284.45 471.232C1285.5 472.098 1286.02 473.206 1286.02 474.555H1283.48C1283.48 473.862 1283.18 473.265 1282.59 472.764C1282.01 472.262 1281.27 472.012 1280.38 472.012C1279.45 472.012 1278.73 472.212 1278.21 472.613C1277.7 473.014 1277.44 473.538 1277.44 474.186C1277.44 474.796 1277.68 475.257 1278.16 475.566C1278.64 475.876 1279.51 476.173 1280.77 476.455C1282.04 476.738 1283.06 477.075 1283.85 477.467C1284.63 477.859 1285.21 478.333 1285.58 478.889C1285.97 479.436 1286.16 480.105 1286.16 480.898C1286.16 482.22 1285.63 483.282 1284.57 484.084C1283.51 484.877 1282.14 485.273 1280.46 485.273C1279.27 485.273 1278.22 485.064 1277.31 484.645C1276.4 484.225 1275.69 483.642 1275.17 482.895C1274.66 482.138 1274.4 481.322 1274.4 480.447H1276.93C1276.98 481.295 1277.31 481.969 1277.94 482.471C1278.58 482.963 1279.42 483.209 1280.46 483.209C1281.41 483.209 1282.18 483.018 1282.75 482.635C1283.34 482.243 1283.63 481.723 1283.63 481.076ZM1288.78 477.467C1288.78 476.018 1289.07 474.714 1289.63 473.557C1290.21 472.399 1291 471.506 1292.01 470.877C1293.03 470.248 1294.19 469.934 1295.5 469.934C1297.51 469.934 1299.14 470.631 1300.38 472.025C1301.63 473.42 1302.25 475.275 1302.25 477.59V477.768C1302.25 479.208 1301.97 480.502 1301.42 481.65C1300.87 482.79 1300.08 483.678 1299.05 484.316C1298.03 484.954 1296.85 485.273 1295.52 485.273C1293.52 485.273 1291.89 484.576 1290.64 483.182C1289.4 481.787 1288.78 479.941 1288.78 477.645V477.467ZM1291.33 477.768C1291.33 479.408 1291.7 480.725 1292.46 481.719C1293.23 482.712 1294.25 483.209 1295.52 483.209C1296.81 483.209 1297.83 482.708 1298.59 481.705C1299.34 480.693 1299.72 479.281 1299.72 477.467C1299.72 475.844 1299.33 474.532 1298.56 473.529C1297.79 472.518 1296.77 472.012 1295.5 472.012C1294.25 472.012 1293.24 472.508 1292.47 473.502C1291.71 474.495 1291.33 475.917 1291.33 477.768ZM1314.55 483.537C1313.57 484.695 1312.13 485.273 1310.22 485.273C1308.64 485.273 1307.44 484.818 1306.61 483.906C1305.79 482.986 1305.38 481.628 1305.37 479.832V470.207H1307.9V479.764C1307.9 482.006 1308.81 483.127 1310.63 483.127C1312.56 483.127 1313.85 482.407 1314.49 480.967V470.207H1317.02V485H1314.61L1314.55 483.537ZM1328.02 472.477C1327.64 472.413 1327.22 472.381 1326.78 472.381C1325.12 472.381 1323.99 473.087 1323.4 474.5V485H1320.87V470.207H1323.33L1323.37 471.916C1324.2 470.594 1325.38 469.934 1326.9 469.934C1327.39 469.934 1327.77 469.997 1328.02 470.125V472.477ZM1336.02 483.209C1336.92 483.209 1337.71 482.936 1338.38 482.389C1339.06 481.842 1339.43 481.158 1339.51 480.338H1341.9C1341.85 481.186 1341.56 481.992 1341.02 482.758C1340.49 483.523 1339.77 484.134 1338.86 484.59C1337.97 485.046 1337.02 485.273 1336.02 485.273C1334.01 485.273 1332.4 484.604 1331.21 483.264C1330.02 481.915 1329.43 480.074 1329.43 477.74V477.316C1329.43 475.876 1329.69 474.596 1330.22 473.475C1330.75 472.354 1331.51 471.483 1332.49 470.863C1333.49 470.243 1334.66 469.934 1336.01 469.934C1337.66 469.934 1339.04 470.43 1340.13 471.424C1341.24 472.417 1341.83 473.707 1341.9 475.293H1339.51C1339.43 474.336 1339.07 473.552 1338.41 472.941C1337.76 472.322 1336.96 472.012 1336.01 472.012C1334.72 472.012 1333.72 472.477 1333.01 473.406C1332.31 474.327 1331.96 475.662 1331.96 477.412V477.891C1331.96 479.595 1332.31 480.908 1333.01 481.828C1333.71 482.749 1334.72 483.209 1336.02 483.209ZM1350.88 485.273C1348.88 485.273 1347.24 484.617 1345.99 483.305C1344.73 481.983 1344.1 480.219 1344.1 478.014V477.549C1344.1 476.081 1344.38 474.773 1344.93 473.625C1345.5 472.467 1346.28 471.565 1347.29 470.918C1348.3 470.262 1349.39 469.934 1350.57 469.934C1352.49 469.934 1353.98 470.567 1355.05 471.834C1356.12 473.101 1356.65 474.915 1356.65 477.275V478.328H1346.63C1346.67 479.786 1347.09 480.967 1347.9 481.869C1348.72 482.762 1349.76 483.209 1351.02 483.209C1351.91 483.209 1352.67 483.027 1353.29 482.662C1353.91 482.298 1354.45 481.814 1354.91 481.213L1356.46 482.416C1355.22 484.321 1353.36 485.273 1350.88 485.273ZM1350.57 472.012C1349.55 472.012 1348.69 472.385 1348 473.133C1347.3 473.871 1346.88 474.91 1346.71 476.25H1354.12V476.059C1354.05 474.773 1353.7 473.78 1353.08 473.078C1352.46 472.367 1351.62 472.012 1350.57 472.012ZM1368.2 481.076C1368.2 480.393 1367.94 479.864 1367.42 479.49C1366.91 479.107 1366.02 478.779 1364.73 478.506C1363.45 478.232 1362.44 477.904 1361.68 477.521C1360.93 477.139 1360.38 476.683 1360.01 476.154C1359.66 475.626 1359.48 474.997 1359.48 474.268C1359.48 473.055 1359.99 472.03 1361.01 471.191C1362.04 470.353 1363.35 469.934 1364.95 469.934C1366.63 469.934 1367.98 470.367 1369.02 471.232C1370.07 472.098 1370.6 473.206 1370.6 474.555H1368.05C1368.05 473.862 1367.76 473.265 1367.16 472.764C1366.58 472.262 1365.84 472.012 1364.95 472.012C1364.03 472.012 1363.31 472.212 1362.79 472.613C1362.27 473.014 1362.01 473.538 1362.01 474.186C1362.01 474.796 1362.25 475.257 1362.73 475.566C1363.22 475.876 1364.09 476.173 1365.35 476.455C1366.61 476.738 1367.64 477.075 1368.42 477.467C1369.21 477.859 1369.78 478.333 1370.16 478.889C1370.54 479.436 1370.73 480.105 1370.73 480.898C1370.73 482.22 1370.2 483.282 1369.15 484.084C1368.09 484.877 1366.72 485.273 1365.03 485.273C1363.85 485.273 1362.8 485.064 1361.89 484.645C1360.98 484.225 1360.26 483.642 1359.74 482.895C1359.23 482.138 1358.97 481.322 1358.97 480.447H1361.5C1361.55 481.295 1361.89 481.969 1362.52 482.471C1363.15 482.963 1363.99 483.209 1365.03 483.209C1365.99 483.209 1366.75 483.018 1367.33 482.635C1367.91 482.243 1368.2 481.723 1368.2 481.076ZM1373.95 488.965L1372.51 487.98C1373.37 486.786 1373.81 485.556 1373.85 484.289V482.006H1376.32V483.988C1376.32 484.909 1376.1 485.829 1375.64 486.75C1375.19 487.671 1374.63 488.409 1373.95 488.965ZM1252.05 524C1251.9 523.708 1251.78 523.189 1251.69 522.441C1250.52 523.663 1249.11 524.273 1247.48 524.273C1246.02 524.273 1244.82 523.863 1243.88 523.043C1242.96 522.214 1242.49 521.165 1242.49 519.898C1242.49 518.358 1243.07 517.164 1244.24 516.316C1245.42 515.46 1247.07 515.031 1249.19 515.031H1251.65V513.869C1251.65 512.985 1251.39 512.283 1250.86 511.764C1250.33 511.235 1249.55 510.971 1248.52 510.971C1247.62 510.971 1246.86 511.199 1246.25 511.654C1245.64 512.11 1245.33 512.661 1245.33 513.309H1242.79C1242.79 512.57 1243.05 511.859 1243.57 511.176C1244.1 510.483 1244.81 509.936 1245.7 509.535C1246.61 509.134 1247.59 508.934 1248.67 508.934C1250.37 508.934 1251.71 509.362 1252.68 510.219C1253.64 511.066 1254.14 512.238 1254.18 513.732V520.541C1254.18 521.899 1254.35 522.979 1254.7 523.781V524H1252.05ZM1247.85 522.072C1248.64 522.072 1249.39 521.867 1250.11 521.457C1250.82 521.047 1251.33 520.514 1251.65 519.857V516.822H1249.67C1246.57 516.822 1245.02 517.729 1245.02 519.543C1245.02 520.336 1245.28 520.956 1245.81 521.402C1246.34 521.849 1247.02 522.072 1247.85 522.072ZM1260.54 509.207L1260.62 511.066C1261.75 509.645 1263.23 508.934 1265.05 508.934C1268.18 508.934 1269.75 510.697 1269.78 514.225V524H1267.25V514.211C1267.24 513.145 1266.99 512.356 1266.51 511.846C1266.04 511.335 1265.29 511.08 1264.28 511.08C1263.46 511.08 1262.74 511.299 1262.12 511.736C1261.5 512.174 1261.02 512.748 1260.67 513.459V524H1258.14V509.207H1260.54ZM1272.98 516.48C1272.98 514.211 1273.52 512.388 1274.59 511.012C1275.67 509.626 1277.08 508.934 1278.82 508.934C1280.55 508.934 1281.92 509.526 1282.93 510.711V503H1285.46V524H1283.14L1283.01 522.414C1282 523.654 1280.59 524.273 1278.79 524.273C1277.08 524.273 1275.68 523.572 1274.59 522.168C1273.52 520.764 1272.98 518.932 1272.98 516.672V516.48ZM1275.51 516.768C1275.51 518.445 1275.85 519.757 1276.55 520.705C1277.24 521.653 1278.2 522.127 1279.42 522.127C1281.02 522.127 1282.19 521.407 1282.93 519.967V513.172C1282.18 511.777 1281.01 511.08 1279.45 511.08C1278.21 511.08 1277.24 511.559 1276.55 512.516C1275.85 513.473 1275.51 514.89 1275.51 516.768ZM1309.95 506.254H1303.55V524H1300.94V506.254H1294.55V504.094H1309.95V506.254ZM1315.25 524H1312.72V509.207H1315.25V524ZM1312.52 505.283C1312.52 504.873 1312.64 504.527 1312.89 504.244C1313.14 503.962 1313.52 503.82 1314.01 503.82C1314.5 503.82 1314.87 503.962 1315.13 504.244C1315.38 504.527 1315.51 504.873 1315.51 505.283C1315.51 505.693 1315.38 506.035 1315.13 506.309C1314.87 506.582 1314.5 506.719 1314.01 506.719C1313.52 506.719 1313.14 506.582 1312.89 506.309C1312.64 506.035 1312.52 505.693 1312.52 505.283ZM1331.81 516.768C1331.81 519.019 1331.29 520.833 1330.26 522.209C1329.23 523.585 1327.84 524.273 1326.08 524.273C1324.28 524.273 1322.87 523.704 1321.84 522.564V529.688H1319.31V509.207H1321.62L1321.75 510.848C1322.78 509.572 1324.21 508.934 1326.04 508.934C1327.82 508.934 1329.22 509.604 1330.25 510.943C1331.29 512.283 1331.81 514.147 1331.81 516.535V516.768ZM1329.28 516.48C1329.28 514.812 1328.92 513.495 1328.21 512.529C1327.5 511.563 1326.53 511.08 1325.29 511.08C1323.76 511.08 1322.61 511.759 1321.84 513.117V520.186C1322.6 521.535 1323.76 522.209 1325.31 522.209C1326.53 522.209 1327.49 521.73 1328.2 520.773C1328.92 519.807 1329.28 518.376 1329.28 516.48ZM1343.65 520.076C1343.65 519.393 1343.39 518.864 1342.87 518.49C1342.36 518.107 1341.46 517.779 1340.18 517.506C1338.9 517.232 1337.88 516.904 1337.13 516.521C1336.38 516.139 1335.82 515.683 1335.46 515.154C1335.1 514.626 1334.93 513.997 1334.93 513.268C1334.93 512.055 1335.44 511.03 1336.46 510.191C1337.49 509.353 1338.8 508.934 1340.39 508.934C1342.07 508.934 1343.43 509.367 1344.47 510.232C1345.52 511.098 1346.04 512.206 1346.04 513.555H1343.5C1343.5 512.862 1343.2 512.265 1342.61 511.764C1342.03 511.262 1341.29 511.012 1340.39 511.012C1339.47 511.012 1338.75 511.212 1338.23 511.613C1337.71 512.014 1337.46 512.538 1337.46 513.186C1337.46 513.796 1337.7 514.257 1338.18 514.566C1338.66 514.876 1339.53 515.173 1340.79 515.455C1342.06 515.738 1343.08 516.075 1343.87 516.467C1344.65 516.859 1345.23 517.333 1345.6 517.889C1345.99 518.436 1346.18 519.105 1346.18 519.898C1346.18 521.22 1345.65 522.282 1344.59 523.084C1343.53 523.877 1342.16 524.273 1340.48 524.273C1339.29 524.273 1338.24 524.064 1337.33 523.645C1336.42 523.225 1335.71 522.642 1335.19 521.895C1334.68 521.138 1334.42 520.322 1334.42 519.447H1336.95C1336.99 520.295 1337.33 520.969 1337.96 521.471C1338.6 521.963 1339.44 522.209 1340.48 522.209C1341.43 522.209 1342.2 522.018 1342.77 521.635C1343.36 521.243 1343.65 520.723 1343.65 520.076Z" fill="white"/>
<path d="M1182.13 449.269C1181 449.269 1180.09 450.182 1180.09 451.309C1180.09 452.435 1181 453.348 1182.13 453.348C1188.88 453.348 1194.37 458.836 1194.37 465.582C1194.37 466.709 1195.28 467.622 1196.41 467.622C1197.53 467.622 1198.44 466.709 1198.44 465.582C1198.44 456.587 1191.13 449.269 1182.13 449.269Z" fill="#FFCA28"/>
<path d="M1176.88 441.662C1167.66 443.587 1160.19 450.986 1158.23 460.256C1156.57 468.083 1158.61 475.942 1163.84 481.817C1166.39 484.688 1167.86 488.479 1167.86 492.227V496.305C1167.86 499.019 1169.63 501.324 1172.08 502.122C1172.89 506.884 1177.02 510.715 1182.13 510.715C1187.24 510.715 1191.37 506.885 1192.18 502.122C1194.63 501.324 1196.41 499.019 1196.41 496.305V492.227C1196.41 488.471 1197.88 484.727 1200.54 481.682C1204.45 477.226 1206.6 471.508 1206.6 465.582C1206.6 450.144 1192.47 438.404 1176.88 441.662ZM1182.13 506.637C1179.51 506.637 1177.21 504.833 1176.36 502.409H1187.9C1187.05 504.833 1184.75 506.637 1182.13 506.637ZM1192.33 496.305C1192.33 497.43 1191.41 498.344 1190.29 498.344H1173.98C1172.85 498.344 1171.94 497.43 1171.94 496.305V494.266H1192.33V496.305ZM1197.48 478.994C1194.63 482.239 1192.88 486.151 1192.44 490.188H1171.82C1171.38 486.149 1169.64 482.198 1166.89 479.106C1162.53 474.21 1160.83 467.648 1162.22 461.102C1163.84 453.46 1170.06 447.252 1177.71 445.654C1190.76 442.926 1202.52 452.729 1202.52 465.582C1202.52 470.519 1200.73 475.282 1197.48 478.994Z" fill="#FFCA28"/>
<path d="M1153.45 465.582H1149.37C1148.24 465.582 1147.33 466.495 1147.33 467.622C1147.33 468.748 1148.24 469.661 1149.37 469.661H1153.45C1154.57 469.661 1155.49 468.748 1155.49 467.622C1155.49 466.495 1154.57 465.582 1153.45 465.582Z" fill="#FFCA28"/>
<path d="M1154.29 455.387L1151.41 452.503C1150.61 451.707 1149.32 451.707 1148.53 452.503C1147.73 453.299 1147.73 454.59 1148.53 455.387L1151.41 458.27C1152.21 459.067 1153.5 459.067 1154.29 458.27C1155.09 457.474 1155.09 456.183 1154.29 455.387Z" fill="#FFCA28"/>
<path d="M1154.29 476.973C1153.5 476.176 1152.21 476.176 1151.41 476.973L1148.53 479.856C1147.73 480.653 1147.73 481.944 1148.53 482.74C1149.32 483.536 1150.61 483.536 1151.41 482.74L1154.29 479.856C1155.09 479.06 1155.09 477.769 1154.29 476.973Z" fill="#FFCA28"/>
<path d="M1214.89 465.582H1210.82C1209.69 465.582 1208.78 466.495 1208.78 467.622C1208.78 468.748 1209.69 469.661 1210.82 469.661H1214.89C1216.02 469.661 1216.93 468.748 1216.93 467.622C1216.93 466.495 1216.02 465.582 1214.89 465.582Z" fill="#FFCA28"/>
<path d="M1215.74 452.503C1214.94 451.707 1213.65 451.707 1212.85 452.503L1209.97 455.387C1209.17 456.183 1209.17 457.474 1209.97 458.27C1210.77 459.067 1212.06 459.067 1212.85 458.27L1215.74 455.387C1216.54 454.59 1216.54 453.299 1215.74 452.503Z" fill="#FFCA28"/>
<path d="M1215.74 479.856L1212.85 476.973C1212.06 476.176 1210.77 476.176 1209.97 476.973C1209.17 477.769 1209.17 479.06 1209.97 479.856L1212.85 482.74C1213.65 483.536 1214.94 483.536 1215.74 482.74C1216.54 481.944 1216.54 480.653 1215.74 479.856Z" fill="#FFCA28"/>
</g>
<defs>
<linearGradient id="paint0_linear" x1="708" y1="-13" x2="708" y2="746" gradientUnits="userSpaceOnUse">
<stop stop-color="#0981E2"/>
<stop offset="1" stop-color="#0981E1"/>
</linearGradient>
<radialGradient id="paint1_radial" cx="0" cy="0" r="1" gradientUnits="userSpaceOnUse" gradientTransform="translate(800.083 52.4251) scale(38.8734)">
<stop stop-color="white" stop-opacity="0.1"/>
<stop offset="1" stop-color="white" stop-opacity="0"/>
</radialGradient>
<linearGradient id="paint2_linear" x1="1054.02" y1="24.2817" x2="1137.14" y2="67.9119" gradientUnits="userSpaceOnUse">
<stop stop-color="white" stop-opacity="0.1"/>
<stop offset="0.14" stop-color="white" stop-opacity="0.08"/>
<stop offset="0.61" stop-color="white" stop-opacity="0.02"/>
<stop offset="1" stop-color="white" stop-opacity="0"/>
</linearGradient>
<clipPath id="clip0">
<rect width="1440" height="746" fill="white"/>
</clipPath>
</defs>
</svg>
